<svg width="32" height="32" viewBox="0 0 32 32" fill="none" xmlns="http://www.w3.org/2000/svg">
<g id="Layer_1">
<path id="Vector" d="M28.3067 22.0107C26.6294 19.4094 25.2574 18.196 24.8747 17.8827C23.9961 17.1747 22.6841 17.1667 21.7814 17.8934C21.4014 18.204 20.0321 19.4214 18.3601 22.0107C16.8987 24.272 16.3134 26.0307 16.0961 26.8694C15.9067 27.58 16.0094 28.3467 16.3694 28.9707C16.7587 29.6467 17.4081 30.1027 18.1454 30.22C18.7841 30.3254 21.0481 30.668 23.3361 30.668C25.6387 30.668 27.8854 30.3254 28.5081 30.2227C29.2547 30.1054 29.9081 29.6507 30.3001 28.9747C30.6627 28.3467 30.7654 27.58 30.5774 26.8774C30.3587 26.0307 29.7721 24.272 28.3094 22.012L28.3067 22.0107ZM23.3334 28.6667C22.5974 28.6667 22.0001 28.0694 22.0001 27.3334C22.0001 26.5974 22.5974 26 23.3334 26C24.0694 26 24.6667 26.5974 24.6667 27.3334C24.6667 28.0694 24.0694 28.6667 23.3334 28.6667ZM24.6667 23.3334C24.6667 24.0694 24.0694 24.6667 23.3334 24.6667C22.5974 24.6667 22.0001 24.0694 22.0001 23.3334V21.3334C22.0001 20.5974 22.5974 20 23.3334 20C24.0694 20 24.6667 20.5974 24.6667 21.3334V23.3334ZM11.7761 24.5934C12.1854 25.2054 12.0201 26.0347 11.4067 26.4427C9.20005 27.9147 6.99205 28.3174 6.89872 28.3334C6.53872 28.3974 6.16405 28.3094 5.87072 28.088C2.77605 25.7787 1.33472 21.9374 1.33472 16C1.33338 5.72004 5.72005 1.33337 16.0001 1.33337C26.2801 1.33337 30.6667 5.72004 30.6667 16C30.6667 16.476 30.6574 16.9374 30.6387 17.3854C30.6107 18.1227 29.9827 18.7374 29.2547 18.6654C28.5187 18.6374 27.9467 18.0174 27.9747 17.2814C27.9907 16.8667 28.0001 16.44 28.0001 16C28.0001 7.25204 24.7481 4.00004 16.0001 4.00004C7.25205 4.00004 4.00005 7.25204 4.00005 16C4.00005 20.68 4.95472 23.744 6.99472 25.568C7.65205 25.38 8.79738 24.9787 9.92672 24.224C10.5401 23.8147 11.3681 23.98 11.7761 24.5934ZM16.0001 18.6667C14.0947 18.6667 13.3334 17.9054 13.3334 16C13.3334 15.572 13.3787 15.2107 13.4587 14.8934C12.3454 13.5787 10.6481 11.8134 8.59338 10.4427C7.98005 10.0347 7.81472 9.20671 8.22405 8.59337C8.63072 7.98137 9.45738 7.81471 10.0734 8.22404C12.4921 9.83604 14.4281 11.8814 15.6534 13.352C15.7681 13.3454 15.8761 13.3334 16.0001 13.3334C17.9054 13.3334 18.6667 14.0947 18.6667 16C18.6667 17.9054 17.9054 18.6667 16.0001 18.6667Z" fill="url(#paint0_linear_1_2995)"/>
</g>
<defs>
<linearGradient id="paint0_linear_1_2995" x1="29.9781" y1="-6.51097" x2="10.5672" y2="35.7158" gradientUnits="userSpaceOnUse">
<stop offset="0.123479" stop-color="#10490A"/>
<stop offset="0.553859" stop-color="#00B67A"/>
<stop offset="1" stop-color="#26AF18"/>
</linearGradient>
</defs>
</svg>
