<svg width="32" height="32" viewBox="0 0 32 32" fill="none" xmlns="http://www.w3.org/2000/svg">
<g id="Layer_1">
<path id="Vector" d="M30.6107 16.6706C30.4334 15.6159 29.8574 14.6946 28.9854 14.0759C28.1147 13.4559 27.056 13.2093 26.0027 13.3879C24.9494 13.5653 24.0294 14.1413 23.408 15.0133C22.08 16.8773 20.668 18.4066 19.1774 19.5986C18.876 18.2626 17.8707 17.1439 16.5254 16.7399C16.424 16.7093 14.028 15.9999 10.6654 15.9999C6.68536 15.9999 3.22403 16.6626 3.0787 16.6906C2.5707 16.7893 2.16403 17.1733 2.0387 17.6759C2.0107 17.7919 1.33203 20.5333 1.33203 23.3333C1.33203 26.1333 2.00936 28.8746 2.0387 28.9906C2.16403 29.4906 2.56536 29.8733 3.0707 29.9746C3.21203 30.0026 6.58003 30.6679 10.6654 30.6679C18.2374 30.6679 24.7174 26.9626 29.9227 19.6559C30.5427 18.7866 30.7854 17.7266 30.6107 16.6733V16.6706ZM27.752 18.1066C23.0747 24.6706 17.3267 27.9999 10.6667 27.9999C8.0227 27.9999 5.65603 27.6946 4.4467 27.5053C4.26136 26.5586 4.00136 24.9373 4.00136 23.3333C4.00136 21.7293 4.2627 20.1146 4.4467 19.1639C5.6747 18.9746 8.07336 18.6666 10.6667 18.6666C13.6134 18.6666 15.74 19.2879 15.7587 19.2933C16.2574 19.4439 16.6734 19.9173 16.6054 20.4346C16.376 22.1879 13.412 22.3279 11.88 22.6719C11.1467 22.7386 10.6054 23.3866 10.672 24.1199C10.7387 24.8533 11.3974 25.3879 12.12 25.3279C17.2374 24.8653 21.7654 21.9159 25.58 16.5613C25.984 15.9666 26.8667 15.8199 27.4387 16.2493C28.032 16.6519 28.1787 17.5333 27.7507 18.1079L27.752 18.1066ZM10.6654 15.9999C9.92937 15.9999 9.33336 15.4026 9.33336 14.6666V14.4813C8.21603 14.1199 7.29736 13.2559 6.89336 12.1093C6.64803 11.4146 7.01203 10.6533 7.7067 10.4079C8.40403 10.1626 9.1627 10.5266 9.40803 11.2213C9.57337 11.6866 10.016 11.9999 10.5107 11.9999C11.1547 11.9999 11.6787 11.4759 11.6787 10.8319C11.6787 10.2613 11.2334 9.70661 10.66 9.69328C8.7227 9.69328 7.14803 8.11728 7.14803 6.18128C7.14803 4.71461 8.05336 3.45861 9.33336 2.93328V2.66928C9.33336 1.93328 9.9307 1.33595 10.6667 1.33595C11.4027 1.33595 12 1.93328 12 2.66928V2.94528C12.4827 3.14528 12.9227 3.44261 13.2787 3.83995C13.7694 4.38928 13.7227 5.23195 13.1747 5.72261C12.624 6.21328 11.7814 6.16662 11.292 5.61862C11.1974 5.51328 10.9894 5.33595 10.6614 5.33595C10.1947 5.33595 9.81603 5.71595 9.81603 6.18261C9.8147 6.68528 10.2547 7.07728 10.7414 7.00528C12.7627 7.12528 14.3467 8.80795 14.3467 10.8333C14.3467 12.4199 13.3774 13.7839 12.0014 14.3666V14.6679C12.0014 15.4039 11.404 16.0013 10.668 16.0013L10.6654 15.9999ZM17.3334 6.66661C17.3334 5.93061 17.9294 5.33328 18.6667 5.33328H23.7094C23.128 4.76528 22.52 4.22395 21.8667 3.73328C21.2787 3.29061 21.16 2.45595 21.6014 1.86661C22.044 1.27861 22.8787 1.15861 23.468 1.59995C25.088 2.81595 26.5227 4.25061 27.7334 5.86661C28.0894 6.33995 28.0894 6.99195 27.7334 7.46528C26.5227 9.08128 25.088 10.5159 23.468 11.7319C22.884 12.1719 22.0454 12.0586 21.6014 11.4653C21.16 10.8773 21.2787 10.0413 21.8667 9.59861C22.52 9.10795 23.128 8.56661 23.7094 7.99861H18.6667C17.9294 7.99861 17.3334 7.40261 17.3334 6.66661Z" fill="url(#paint0_linear_1_2988)"/>
</g>
<defs>
<linearGradient id="paint0_linear_1_2988" x1="29.9744" y1="-6.51048" x2="10.5635" y2="35.7154" gradientUnits="userSpaceOnUse">
<stop offset="0.123479" stop-color="#10490A"/>
<stop offset="0.553859" stop-color="#00B67A"/>
<stop offset="1" stop-color="#26AF18"/>
</linearGradient>
</defs>
</svg>
