<svg width="32" height="32" viewBox="0 0 32 32" fill="none" xmlns="http://www.w3.org/2000/svg">
<g id="Component 5">
<path id="Vector" d="M12.5569 4.01106C11.0635 4.13726 9.69636 4.62628 8.45539 5.47813C7.21442 6.32998 6.26792 7.42897 5.61589 8.77511C5.27936 9.46921 5.03747 10.1949 4.89024 10.9521C4.80611 11.3517 4.75878 11.8723 4.74827 12.5138C4.73775 13.1553 4.77456 13.6548 4.85869 14.0124C5.04799 15.0851 5.42659 16.0737 5.99449 16.9781C6.56239 17.8825 7.25649 18.6713 8.07679 19.3444L8.39229 19.5652C8.39229 19.6073 8.28712 19.6599 8.07679 19.723C7.15132 20.0805 6.17327 20.6116 5.14264 21.3162C4.11201 22.0209 3.22861 22.7833 2.49244 23.6036C2.19797 23.9401 2.00867 24.1873 1.92454 24.345C1.84041 24.5028 1.79834 24.6763 1.79834 24.8656C1.79834 25.2021 1.90876 25.4808 2.12961 25.7017C2.35046 25.9225 2.63967 26.033 2.99724 26.033C3.20757 26.033 3.38636 25.9804 3.53359 25.8752C3.68082 25.77 3.94374 25.5282 4.32234 25.1496C5.10057 24.3082 5.87881 23.6457 6.65704 23.1619C8.06627 22.2154 9.60171 21.5949 11.2633 21.3005C11.705 21.2163 12.3676 21.169 13.251 21.1585C14.1344 21.148 14.7969 21.1848 15.2386 21.2689C16.4375 21.4582 17.5839 21.8263 18.6776 22.3732C19.3507 22.7097 19.9291 23.062 20.4128 23.4301C20.8966 23.7982 21.454 24.2977 22.085 24.9287C22.3374 25.2021 22.5793 25.4388 22.8106 25.6386C23.042 25.8384 23.1787 25.9488 23.2208 25.9699C23.347 26.0119 23.5047 26.033 23.694 26.033C23.8833 26.033 24.0411 26.0014 24.1673 25.9383C24.4618 25.7911 24.6616 25.5702 24.7667 25.2758C24.8719 24.9813 24.8614 24.6763 24.7352 24.3608C24.6931 24.2556 24.5196 24.0348 24.2146 23.6983C23.9096 23.3617 23.6099 23.0567 23.3154 22.7833C22.6634 22.1523 21.9325 21.5739 21.1227 21.0481C20.3129 20.5222 19.5189 20.1121 18.7407 19.8176L18.2359 19.5968C18.2359 19.5757 18.299 19.5231 18.4252 19.439C18.7407 19.2076 19.0825 18.9027 19.4506 18.5241C19.8186 18.1455 20.1394 17.7563 20.4128 17.3567C20.8966 16.6416 21.2647 15.8739 21.5171 15.0536C21.7695 14.2333 21.8852 13.3919 21.8641 12.5296C21.8641 11.5831 21.7169 10.6681 21.4224 9.78471C21.128 8.90131 20.6968 8.08101 20.1289 7.32381C19.8975 7.05037 19.6136 6.74539 19.277 6.40886C18.8984 6.03026 18.5724 5.75682 18.299 5.58856C17.9204 5.33616 17.5313 5.10479 17.1316 4.89446C16.1431 4.38966 15.0914 4.09519 13.9766 4.01106C13.6401 3.96899 13.4087 3.94796 13.2825 3.94796C13.1563 3.94796 12.9145 3.96899 12.5569 4.01106ZM13.9451 6.37731C15.144 6.50351 16.2167 6.94521 17.1632 7.70241C18.1097 8.45961 18.7828 9.41662 19.1824 10.5735C19.54 11.6251 19.6083 12.682 19.3875 13.7442C19.1666 14.8064 18.7091 15.7529 18.015 16.5837C17.3209 17.4145 16.4481 18.0193 15.3964 18.3979C14.4709 18.7344 13.5244 18.8396 12.5569 18.7134C11.5894 18.5872 10.7007 18.2611 9.89091 17.7353C9.08113 17.2095 8.43436 16.5154 7.95059 15.653C7.52992 14.9168 7.26701 14.1334 7.16184 13.3025C7.05667 12.4717 7.11977 11.6567 7.35114 10.8574C7.43527 10.5629 7.57199 10.2159 7.76129 9.81626C7.95059 9.41662 8.15041 9.08009 8.36074 8.80666C8.88657 8.13359 9.51757 7.58673 10.2537 7.16606C10.9899 6.74539 11.7787 6.48248 12.62 6.37731C12.9355 6.33524 13.1669 6.31421 13.3141 6.31421C13.4613 6.31421 13.6717 6.33524 13.9451 6.37731ZM27.2276 12.9082C26.9121 13.0133 26.6808 13.2131 26.5335 13.5076C26.4915 13.6338 26.4599 13.7495 26.4389 13.8547L26.3758 15.7792L25.3662 15.8108C24.8404 15.8108 24.5249 15.816 24.4197 15.8265C24.3145 15.8371 24.1988 15.8844 24.0726 15.9685C23.7571 16.1578 23.5678 16.4312 23.5047 16.7888C23.4416 17.1464 23.5258 17.4619 23.7571 17.7353C23.9044 17.9246 24.0674 18.0403 24.2462 18.0824C24.4249 18.1244 24.7983 18.1455 25.3662 18.1455H26.3758L26.4389 20.1331C26.4599 20.2593 26.4915 20.3645 26.5335 20.4486C26.7439 20.8062 27.0383 21.0218 27.4169 21.0954C27.7955 21.169 28.1321 21.0691 28.4265 20.7957C28.5738 20.6484 28.6684 20.4854 28.7105 20.3066C28.7526 20.1279 28.7841 19.7545 28.8051 19.1866L28.8367 18.1455H29.8147C30.3616 18.1455 30.7244 18.1297 30.9032 18.0981C31.082 18.0666 31.245 17.9772 31.3922 17.83L31.55 17.6722V17.0097C31.55 16.6311 31.529 16.3892 31.4869 16.284C31.4448 16.1788 31.3291 16.0737 31.1398 15.9685C31.0136 15.8844 30.898 15.8371 30.7928 15.8265C30.6876 15.816 30.3721 15.8108 29.8463 15.8108L28.8051 15.7792V14.8958C28.8051 14.412 28.7894 14.0703 28.7578 13.8704C28.7263 13.6706 28.6684 13.4971 28.5843 13.3499C28.4581 13.1606 28.253 13.0186 27.9691 12.9239C27.6851 12.8293 27.438 12.824 27.2276 12.9082Z" fill="url(#paint0_linear_1_3078)"/>
</g>
<defs>
<linearGradient id="paint0_linear_1_3078" x1="30.8486" y1="31.9387" x2="19.0787" y2="-2.55379" gradientUnits="userSpaceOnUse">
<stop offset="0.123479" stop-color="#10490A"/>
<stop offset="0.553859" stop-color="#00B67A"/>
<stop offset="1" stop-color="#26AF18"/>
</linearGradient>
</defs>
</svg>
