<svg width="32" height="32" viewBox="0 0 32 32" fill="none" xmlns="http://www.w3.org/2000/svg">
<g id="Layer_1">
<path id="Vector" d="M27.156 24.436C27.184 24.512 27.8293 26.3267 27.9973 29.256C28.04 29.992 27.4773 30.6214 26.744 30.664C26.7173 30.664 26.692 30.6667 26.6653 30.6667C25.964 30.6667 25.376 30.1187 25.336 29.4107C25.248 27.884 25.0147 26.716 24.844 26.0307C23.5373 25.7854 20.5067 25.3347 16 25.3347C11.4933 25.3347 8.46267 25.7867 7.156 26.0307C6.98533 26.716 6.752 27.8854 6.664 29.4107C6.62267 30.1454 5.98933 30.696 5.256 30.664C4.52133 30.6227 3.95867 29.992 4.00267 29.256C4.17067 26.3267 4.816 24.5107 4.844 24.436C4.99333 24.02 5.34 23.7067 5.76667 23.5974C5.916 23.56 9.484 22.6667 16 22.6667C22.516 22.6667 26.0827 23.56 26.2333 23.5974C26.66 23.7067 27.0067 24.02 27.156 24.436ZM4.14133 14.804C4.048 13.888 4 12.944 4 12C4 11.056 4.048 10.112 4.14133 9.19604C4.212 8.51604 4.784 8.00004 5.468 8.00004H5.63333C5.83867 6.67071 6.07733 5.87737 6.09467 5.82137C6.22933 5.39737 6.56533 5.06804 6.992 4.94271C7.11333 4.90804 9.804 4.15071 14.6667 4.02537V2.66671C14.6667 1.92937 15.2627 1.33337 16 1.33337C16.7373 1.33337 17.3333 1.92937 17.3333 2.66671V4.02537C22.196 4.15071 24.8867 4.90804 25.008 4.94271C25.4347 5.06804 25.7707 5.39737 25.9053 5.82137C25.9227 5.87737 26.16 6.67071 26.3667 8.00004H26.532C27.216 8.00004 27.788 8.51737 27.8587 9.19604C27.952 10.112 28 11.056 28 12C28 12.944 27.952 13.888 27.8587 14.804C27.788 15.484 27.216 16 26.532 16H26.3667C26.1613 17.3294 25.9227 18.1227 25.9053 18.1787C25.7707 18.6027 25.4347 18.932 25.008 19.0574C24.876 19.0947 21.7253 20 16 20C10.2747 20 7.124 19.0947 6.992 19.0574C6.56533 18.932 6.22933 18.6027 6.09467 18.1787C6.07733 18.1227 5.84 17.3294 5.63333 16H5.468C4.784 16 4.212 15.4827 4.14133 14.804ZM8.46267 7.33337C8.272 8.20804 7.99867 9.84671 7.99867 12C7.99867 14.1534 8.272 15.7907 8.46267 16.6667C9.636 16.912 12.2133 17.3334 15.9987 17.3334C19.784 17.3334 22.3613 16.912 23.5347 16.6667C23.7253 15.792 23.9987 14.1534 23.9987 12C23.9987 9.84671 23.7253 8.20804 23.5347 7.33337C22.3627 7.08937 19.7853 6.66671 15.9987 6.66671C12.212 6.66671 9.636 7.08804 8.46267 7.33337ZM13.332 13.3334C14.068 13.3334 14.6653 12.736 14.6653 12C14.6653 11.264 14.068 10.6667 13.332 10.6667C12.596 10.6667 11.9987 11.264 11.9987 12C11.9987 12.736 12.596 13.3334 13.332 13.3334ZM18.6653 13.3334C19.4013 13.3334 19.9987 12.736 19.9987 12C19.9987 11.264 19.4013 10.6667 18.6653 10.6667C17.9293 10.6667 17.332 11.264 17.332 12C17.332 12.736 17.9293 13.3334 18.6653 13.3334Z" fill="url(#paint0_linear_1_3030)"/>
</g>
<defs>
<linearGradient id="paint0_linear_1_3030" x1="27.4342" y1="-6.51061" x2="5.59231" y2="32.3651" gradientUnits="userSpaceOnUse">
<stop offset="0.123479" stop-color="#10490A"/>
<stop offset="0.553859" stop-color="#00B67A"/>
<stop offset="1" stop-color="#26AF18"/>
</linearGradient>
</defs>
</svg>
