<svg width="32" height="32" viewBox="0 0 32 32" fill="none" xmlns="http://www.w3.org/2000/svg">
<g id="Component 5">
<path id="Vector" d="M13.8504 3.09598C11.8943 3.39045 10.0959 4.09507 8.45533 5.20984C7.76123 5.67257 7.13023 6.20892 6.56233 6.81888C5.55273 7.82848 4.73243 8.98006 4.10143 10.2736C3.47043 11.5672 3.06028 12.9186 2.87098 14.3278C2.78685 14.9167 2.7553 15.5793 2.77633 16.3154C2.79736 17.0516 2.86046 17.7247 2.96563 18.3346C3.197 19.5335 3.58611 20.6851 4.13298 21.7894C4.67985 22.8936 5.37395 23.898 6.21528 24.8024C8.36068 27.1371 11.074 28.5148 14.3552 28.9354C14.7127 28.9775 15.2228 28.9985 15.8854 28.9985C16.5479 28.9985 17.0685 28.967 17.4471 28.9039C18.8563 28.7146 20.2077 28.3044 21.5013 27.6734C22.7948 27.0424 23.9464 26.2221 24.956 25.2125C25.7973 24.3712 26.4967 23.4825 27.0541 22.5466C27.6114 21.6106 28.0479 20.5642 28.3634 19.4073C28.5106 18.9025 28.6263 18.3767 28.7104 17.8298C28.7946 17.283 28.8156 16.9149 28.7735 16.7256C28.6894 16.3891 28.5001 16.1367 28.2056 15.9684C27.9112 15.8001 27.6062 15.7686 27.2907 15.8737C27.1224 15.9158 26.9647 15.9947 26.8174 16.1104C26.6702 16.226 26.5755 16.3575 26.5335 16.5047C26.4493 16.7361 26.3968 16.999 26.3757 17.2935C26.2495 18.4293 25.934 19.5125 25.4292 20.5431C24.7141 22.0575 23.6887 23.3353 22.3531 24.3765C21.0175 25.4176 19.5241 26.1065 17.873 26.443C16.2219 26.7795 14.5971 26.7269 12.9985 26.2852C11.4 25.8435 9.97499 25.0706 8.7235 23.9663C7.47202 22.8621 6.53078 21.5317 5.89978 19.9752C5.64738 19.3442 5.4686 18.7606 5.36343 18.2242C5.25826 17.6879 5.19516 17.0516 5.17413 16.3154C5.1531 15.5793 5.17939 14.9325 5.253 14.3751C5.32662 13.8177 5.4686 13.2341 5.67893 12.6241C6.07856 11.4462 6.6675 10.3683 7.44573 9.39021C8.22396 8.41216 9.13891 7.5866 10.1906 6.91353C11.4946 6.09324 12.9144 5.58843 14.4498 5.39913C14.7653 5.3781 15.0388 5.32552 15.2701 5.24138C15.4594 5.15725 15.6277 5.01002 15.7749 4.79968C15.9222 4.58935 15.9958 4.37902 15.9958 4.16868C15.9958 4.06352 15.9695 3.93732 15.9169 3.79008C15.8643 3.64285 15.7907 3.52191 15.6961 3.42726C15.6014 3.33261 15.4805 3.24322 15.3332 3.15908C15.186 3.07495 15.002 3.02763 14.7811 3.01711C14.5603 3.00659 14.25 3.03288 13.8504 3.09598ZM19.3401 3.25373C19.0035 3.33787 18.7301 3.52717 18.5198 3.82163C18.3094 4.1161 18.2253 4.4316 18.2674 4.76814C18.3094 5.10467 18.4251 5.38862 18.6144 5.61998C18.8037 5.85135 19.0666 6.0091 19.4032 6.09324C19.5504 6.11427 19.6556 6.12478 19.7187 6.12478C19.7818 6.12478 19.8869 6.11427 20.0342 6.09324C20.3917 5.98807 20.6704 5.80928 20.8703 5.55688C21.0701 5.30448 21.1805 5.01002 21.2015 4.67348C21.2226 4.33695 21.1174 4.03197 20.886 3.75853C20.6967 3.52717 20.4654 3.36942 20.1919 3.28528C19.9185 3.20115 19.6345 3.19063 19.3401 3.25373ZM23.5362 6.28253C23.389 6.36667 23.247 6.47709 23.1103 6.61381C22.9736 6.75053 22.8684 6.89776 22.7948 7.05551C22.7212 7.21326 22.6844 7.40782 22.6844 7.63918C22.6844 7.87055 22.7264 8.05985 22.8106 8.20708C22.9368 8.48052 23.1208 8.69611 23.3627 8.85386C23.6046 9.01161 23.8728 9.09048 24.1672 9.09048C24.3986 9.06945 24.5826 9.03264 24.7194 8.98006C24.8561 8.92748 25.0033 8.82231 25.1611 8.66456C25.3188 8.50681 25.4397 8.31751 25.5239 8.09666C25.608 7.87581 25.6343 7.64444 25.6028 7.40256C25.5712 7.16068 25.4818 6.94508 25.3346 6.75578C25.1873 6.56648 25.0086 6.41925 24.7982 6.31409C24.3776 6.12478 23.9569 6.11427 23.5362 6.28253ZM15.3963 7.98623C15.2491 8.0283 15.1019 8.11769 14.9546 8.25441C14.8074 8.39113 14.7127 8.5331 14.6707 8.68033C14.6496 8.76447 14.6286 9.06945 14.6076 9.59528V12.5925C14.6076 14.4435 14.6128 15.5319 14.6234 15.858C14.6339 16.184 14.6602 16.3996 14.7022 16.5047C14.8284 16.7361 15.0282 16.9254 15.3017 17.0726C15.3858 17.1147 15.6067 17.141 15.9642 17.1515C16.3218 17.162 17.3945 17.1673 19.1823 17.1673H22.1796C22.7054 17.1463 23.0104 17.1252 23.0945 17.1042C23.3049 17.0411 23.4889 16.8939 23.6467 16.6625C23.8044 16.4311 23.8833 16.2103 23.8833 15.9999C23.8833 15.7896 23.8149 15.5845 23.6782 15.3847C23.5415 15.1849 23.3785 15.0324 23.1892 14.9272C23.105 14.8852 22.9157 14.8589 22.6213 14.8484C22.3268 14.8378 21.4539 14.8326 20.0026 14.8326H17.0054L16.9738 11.8353C16.9738 10.6364 16.9738 9.87923 16.9738 9.56373C16.9528 9.101 16.9212 8.7855 16.8792 8.61724C16.8371 8.51207 16.753 8.39639 16.6268 8.27018L16.5952 8.23863C16.448 8.11243 16.2955 8.0283 16.1378 7.98623C15.98 7.94417 15.8591 7.92313 15.7749 7.92313C15.6908 7.92313 15.5646 7.94417 15.3963 7.98623ZM26.6597 10.668C26.1338 10.8573 25.8078 11.2149 25.6816 11.7407C25.6606 11.8879 25.6501 11.9931 25.6501 12.0562C25.6501 12.1193 25.6606 12.2245 25.6816 12.3717C25.8078 12.8134 26.0445 13.1341 26.3915 13.334C26.7386 13.5338 27.1119 13.5758 27.5115 13.4602C27.9112 13.3445 28.2109 13.1026 28.4107 12.7345C28.6105 12.3664 28.6473 12.0141 28.5211 11.6776C28.437 11.3831 28.274 11.136 28.0321 10.9362C27.7902 10.7363 27.5115 10.6259 27.196 10.6049C27.0067 10.5839 26.8279 10.6049 26.6597 10.668Z" fill="url(#paint0_linear_1_3091)"/>
</g>
<defs>
<linearGradient id="paint0_linear_1_3091" x1="28.1811" y1="35.9468" x2="11.005" y2="-1.47668" gradientUnits="userSpaceOnUse">
<stop offset="0.123479" stop-color="#10490A"/>
<stop offset="0.553859" stop-color="#00B67A"/>
<stop offset="1" stop-color="#26AF18"/>
</linearGradient>
</defs>
</svg>
