<svg width="32" height="32" viewBox="0 0 32 32" fill="none" xmlns="http://www.w3.org/2000/svg">
<g id="Component 5">
<path id="Vector" d="M23.102 3.06454C22.8284 3.19074 22.6391 3.4484 22.5339 3.83752C22.4287 4.22663 22.4602 4.55791 22.6286 4.83134C22.6917 4.93651 22.7969 5.03116 22.9442 5.11529C23.0914 5.19943 23.3334 5.29408 23.67 5.39924C24.3012 5.60958 24.843 5.89353 25.2954 6.25109C25.7477 6.60866 26.1738 7.08191 26.5736 7.67084C26.7208 7.88118 26.8418 8.03367 26.9365 8.12832C27.0312 8.22297 27.1522 8.29133 27.2994 8.33339C27.5309 8.37546 27.7834 8.33865 28.0569 8.22297C28.3304 8.10729 28.5408 7.94428 28.6881 7.73394C28.7933 7.58671 28.8406 7.42896 28.8301 7.26069C28.8196 7.09243 28.7933 6.92416 28.7512 6.75589C28.646 6.54556 28.4777 6.28264 28.2462 5.96714C28.0148 5.65164 27.7518 5.34666 27.4572 5.05219C27.0154 4.61049 26.563 4.24241 26.1002 3.94794C25.6373 3.65348 25.1113 3.40108 24.5222 3.19074C23.8699 2.95938 23.3965 2.91731 23.102 3.06454ZM13.5393 3.34849C13.1816 3.41159 12.8029 3.55883 12.4031 3.79019C12.0034 4.02156 11.6878 4.27396 11.4563 4.54739L11.2354 4.79979L11.0776 4.70514C10.7199 4.47378 10.3307 4.29499 9.90989 4.16879C9.61533 4.08466 9.27869 4.04259 8.89997 4.04259C8.52125 4.04259 8.21617 4.08466 7.98473 4.16879C7.29041 4.40016 6.71707 4.75773 6.26471 5.24149C5.81235 5.72526 5.52305 6.30368 5.39681 6.97674C5.31265 7.39741 5.29687 7.79179 5.34947 8.15987C5.40207 8.52795 5.53357 8.93284 5.74397 9.37454L6.05957 9.94244L5.90177 9.97399C5.64929 10.0371 5.37051 10.1423 5.06543 10.2895C4.76035 10.4367 4.50261 10.605 4.29221 10.7943C3.68205 11.3201 3.28755 11.9932 3.10871 12.8135C2.92987 13.6338 3.01929 14.4015 3.37697 15.1166C3.44009 15.2639 4.22909 16.6416 5.74397 19.2497L8.30033 23.6667C9.14193 25.0549 10.215 26.196 11.5194 27.0899C12.8239 27.9838 14.2967 28.578 15.9378 28.8724C16.3376 28.9355 16.9635 28.9671 17.8157 28.9671C18.6678 28.9671 19.2832 28.925 19.6619 28.8409C21.4714 28.5254 23.102 27.8103 24.5537 26.6955C24.7852 26.5272 25.0902 26.2485 25.469 25.8594C25.8477 25.4703 26.1317 25.1601 26.3211 24.9287C27.6676 23.246 28.4672 21.332 28.7196 19.1866C28.7617 18.808 28.7722 18.2822 28.7512 17.6091C28.7302 16.936 28.6881 16.4102 28.625 16.0316C28.4356 14.9168 28.0779 13.8652 27.5519 12.8766C27.2574 12.3297 26.7524 11.4463 26.037 10.2264C25.3006 8.94336 24.8798 8.23874 24.7746 8.11254C24.459 7.71291 24.0698 7.40793 23.6069 7.19759C22.8916 6.86106 22.1604 6.75064 21.4135 6.86632C20.6666 6.982 19.988 7.31328 19.3779 7.86014L19.1254 8.11254L18.2102 6.53504C17.621 5.50441 17.2423 4.88393 17.074 4.67359C16.7163 4.16879 16.2008 3.79019 15.5276 3.53779C14.8543 3.28539 14.1915 3.22229 13.5393 3.34849ZM14.6123 5.71474C14.8017 5.77784 14.9647 5.87775 15.1015 6.01447C15.2383 6.15119 15.8537 7.16604 16.9478 9.05904C17.3896 9.83728 17.9787 10.8574 18.7151 12.1194L19.4726 13.4445L19.1254 13.8231C18.2207 14.7906 17.6684 15.9107 17.4685 17.1832C17.2686 18.4557 17.4738 19.6809 18.0839 20.8587C18.3154 21.2794 18.5573 21.5528 18.8098 21.679C19.0623 21.8052 19.3568 21.7842 19.6935 21.6159C19.988 21.4897 20.1984 21.311 20.3247 21.0796C20.4299 20.9113 20.4772 20.7431 20.4667 20.5748C20.4562 20.4065 20.3668 20.1646 20.1984 19.8491C19.9249 19.2602 19.7724 18.7449 19.7408 18.3032C19.7093 17.8615 19.7882 17.3672 19.9775 16.8203C20.23 16.0631 20.7455 15.4216 21.524 14.8958C21.8185 14.6855 22.0079 14.5172 22.092 14.391C22.1762 14.2648 22.2183 14.086 22.2183 13.8546V13.5076L21.524 12.2771C21.2504 11.8144 20.998 11.3517 20.7665 10.8889C20.6403 10.5945 20.6455 10.2895 20.7823 9.97399C20.9191 9.65849 21.1347 9.42713 21.4293 9.27989C21.6607 9.17473 21.8974 9.14318 22.1394 9.18524C22.3813 9.22731 22.597 9.33248 22.7864 9.50074C22.8916 9.58488 23.3176 10.2579 24.0645 11.5199C24.8115 12.7819 25.3006 13.6653 25.5321 14.1701C25.9529 15.0325 26.2369 15.979 26.3842 17.0096C26.4052 17.1989 26.4158 17.5355 26.4158 18.0192C26.4158 18.503 26.3947 18.8711 26.3526 19.1235C26.1212 20.7851 25.469 22.2522 24.3959 23.5247C23.3229 24.7972 21.9974 25.6964 20.4194 26.2222C19.199 26.6219 17.9682 26.7428 16.7268 26.5851C15.4855 26.4273 14.323 26.0224 13.2395 25.3704C12.1559 24.7184 11.2564 23.856 10.5411 22.7833C10.3728 22.5519 9.47857 21.027 7.85849 18.2085C6.28049 15.4742 5.45993 14.0019 5.39681 13.7915C5.33369 13.476 5.38103 13.1816 5.53883 12.9081C5.69663 12.6347 5.93333 12.4454 6.24893 12.3402C6.43829 12.2982 6.59083 12.2771 6.70655 12.2771C6.82227 12.2771 6.96429 12.3087 7.13261 12.3718H7.16417C7.29041 12.4349 7.40087 12.5138 7.49555 12.6084C7.59023 12.7031 7.75329 12.9292 7.98473 13.2867L9.43649 15.8107C10.1518 17.0517 10.5832 17.7458 10.7304 17.893C10.9408 18.1034 11.1565 18.2191 11.3774 18.2401C11.5983 18.2611 11.8508 18.1875 12.1349 18.0192C12.4189 17.851 12.603 17.6459 12.6872 17.404C12.7713 17.1621 12.7503 16.9045 12.624 16.631C12.5399 16.4628 11.3616 14.412 9.08933 10.4788L8.04785 8.64889C7.87953 8.33339 7.77433 8.11254 7.73225 7.98634C7.69017 7.86014 7.67965 7.72343 7.70069 7.57619C7.74277 7.21863 7.87953 6.93468 8.11097 6.72434C8.34241 6.51401 8.63171 6.40359 8.97887 6.39307C9.32603 6.38255 9.62585 6.51401 9.87833 6.78744C10.1098 7.14501 10.8672 8.42804 12.1506 10.6365C13.6024 13.1395 14.3914 14.4541 14.5176 14.5803C14.728 14.7906 14.9332 14.9063 15.1331 14.9273C15.3329 14.9484 15.5802 14.8748 15.8747 14.7065C16.1693 14.5382 16.3639 14.3332 16.4586 14.0913C16.5533 13.8494 16.5375 13.6022 16.4112 13.3498C15.8642 12.3402 15.2961 11.3306 14.707 10.321L13.0028 7.32379C12.8976 7.00829 12.9291 6.68754 13.0974 6.36152C13.2658 6.0355 13.5077 5.81991 13.8233 5.71474C13.9916 5.67268 14.1284 5.65164 14.2336 5.65164C14.3388 5.65164 14.465 5.67268 14.6123 5.71474ZM5.74397 23.6667C5.23901 23.856 4.92341 24.0979 4.79717 24.3923C4.69197 24.6237 4.68145 24.8656 4.76561 25.118C4.84977 25.3704 5.10225 25.8121 5.52305 26.4431C6.23841 27.5579 7.05897 28.5254 7.98473 29.3457C8.30033 29.5981 8.54755 29.7769 8.72639 29.882C8.90523 29.9872 9.06829 30.0398 9.21557 30.0398C9.48909 30.0398 9.73631 29.9399 9.95723 29.7401C10.1781 29.5403 10.3254 29.2984 10.3991 29.0144C10.4727 28.7305 10.4359 28.4938 10.2886 28.3045C10.1413 28.1152 9.98353 27.947 9.81521 27.7997C9.24713 27.2949 8.72113 26.7586 8.23721 26.1907C7.81641 25.6228 7.41665 25.0339 7.03793 24.4239C6.80649 24.0663 6.59609 23.8455 6.40673 23.7613C6.30153 23.7193 6.18581 23.6877 6.05957 23.6667C5.93333 23.6457 5.82813 23.6457 5.74397 23.6667Z" fill="url(#paint0_linear_1_3066)"/>
</g>
<defs>
<linearGradient id="paint0_linear_1_3066" x1="28.223" y1="37.2762" x2="9.76909" y2="-1.01576" gradientUnits="userSpaceOnUse">
<stop offset="0.123479" stop-color="#10490A"/>
<stop offset="0.553859" stop-color="#00B67A"/>
<stop offset="1" stop-color="#26AF18"/>
</linearGradient>
</defs>
</svg>
