<svg width="32" height="32" viewBox="0 0 32 32" fill="none" xmlns="http://www.w3.org/2000/svg">
<g id="Layer_1">
<path id="Vector" d="M29.5692 3.44671C29.4586 2.93871 29.0612 2.54137 28.5519 2.43071C28.3492 2.38537 23.4959 1.33337 18.6666 1.33337C13.8372 1.33337 8.9839 2.38671 8.78123 2.43071C8.2719 2.54137 7.87457 2.93871 7.7639 3.44671C7.71857 3.65071 6.66657 8.50271 6.66657 13.3334C6.66657 18.164 7.71857 23.0147 7.7639 23.22C7.87457 23.728 8.2719 24.1254 8.78123 24.236C8.9839 24.2814 13.8372 25.3334 18.6666 25.3334C19.8119 25.3334 21.0599 25.2734 22.3746 25.1534C22.6812 25.1254 22.9692 24.9907 23.1892 24.7747L30.0852 17.972C30.3092 17.7507 30.4466 17.4587 30.4772 17.1454C30.6026 15.7934 30.6666 14.5107 30.6666 13.3334C30.6666 8.50271 29.6146 3.65204 29.5692 3.44671ZM10.1999 21.8C9.90657 20.2307 9.33323 16.7254 9.33323 13.3334C9.33323 9.94137 9.9079 6.43737 10.1999 4.86671C11.7692 4.57337 15.2746 4.00004 18.6666 4.00004C22.0586 4.00004 25.5639 4.57471 27.1332 4.86671C27.4266 6.43604 27.9999 9.94137 27.9999 13.3334C27.9999 13.7667 27.9879 14.2214 27.9692 14.6867C24.5399 14.5707 21.6172 15.072 21.4812 15.096C20.9492 15.1894 20.5252 15.5947 20.4092 16.1227C20.3879 16.2187 19.9252 18.4374 20.0199 22.6374C19.5546 22.656 19.0999 22.668 18.6666 22.668C15.2746 22.668 11.7692 22.092 10.1999 21.8ZM22.6679 21.544C22.6679 19.7147 22.7799 18.3854 22.8786 17.5894C23.7852 17.4774 25.2679 17.336 26.9346 17.3347L22.6679 21.5427V21.544ZM18.6652 30.668C11.4919 30.668 4.28257 29.104 3.97857 29.036C3.47057 28.9254 3.07323 28.528 2.96257 28.02C2.8959 27.716 1.33057 20.508 1.33057 13.3347C1.33057 12.4214 1.3559 11.5054 1.40123 10.6014C1.43857 9.86671 2.07057 9.28937 2.7999 9.33737C3.5359 9.37337 4.10257 10 4.06523 10.736C4.02257 11.596 3.99723 12.4667 3.99723 13.336C3.99723 18.828 4.9879 24.5054 5.3959 26.6054C7.49457 27.012 13.1719 28.0027 18.6639 28.0027C19.0639 28.0027 19.5666 27.9974 19.9666 27.988C20.6839 27.9094 21.3132 28.5534 21.3306 29.2894C21.3479 30.0254 20.7652 30.636 20.0279 30.6534C19.6106 30.664 19.0812 30.6694 18.6639 30.6694L18.6652 30.668Z" fill="url(#paint0_linear_1_3037)"/>
</g>
<defs>
<linearGradient id="paint0_linear_1_3037" x1="29.975" y1="-6.51133" x2="10.5631" y2="35.7173" gradientUnits="userSpaceOnUse">
<stop offset="0.123479" stop-color="#10490A"/>
<stop offset="0.553859" stop-color="#00B67A"/>
<stop offset="1" stop-color="#26AF18"/>
</linearGradient>
</defs>
</svg>
