<svg width="32" height="32" viewBox="0 0 32 32" fill="none" xmlns="http://www.w3.org/2000/svg">
<g id="Layer_1">
<path id="Vector" d="M29.9892 5.16929C29.9412 4.78396 29.7292 4.43863 29.4052 4.22396C29.1652 4.06529 26.9452 2.66663 22.6652 2.66663C19.5572 2.66663 17.1719 3.75329 15.9986 4.42263C14.8252 3.75329 12.4399 2.66663 9.3319 2.66663C5.0519 2.66663 2.8319 4.06529 2.5919 4.22396C2.26923 4.43863 2.0559 4.78396 2.0079 5.16929C1.9799 5.39063 1.33057 10.656 1.33057 14.6666C1.33057 17.4853 1.5639 20.6253 1.75857 22.7613C1.94123 24.7653 3.38123 26.4186 5.34257 26.8773L15.6932 29.2973C15.8932 29.344 16.0999 29.344 16.2999 29.2973L26.6506 26.8773C28.6132 26.4186 30.0532 24.7653 30.2346 22.7626C30.4292 20.632 30.6626 17.4986 30.6626 14.6666C30.6626 10.656 30.0132 5.39063 29.9852 5.16929H29.9892ZM4.41723 22.52C4.22657 20.4373 3.9999 17.384 3.9999 14.6666C3.9999 11.652 4.3999 7.75729 4.5759 6.19329C5.33323 5.86396 6.92523 5.33329 9.33323 5.33329C11.8546 5.33329 13.7839 6.23596 14.6666 6.73729V26.3186L5.95323 24.2813C5.11323 24.0853 4.4959 23.376 4.41723 22.52ZM27.5826 22.52C27.5039 23.3773 26.8879 24.0853 26.0479 24.2813L17.3346 26.3186V6.73863C18.2199 6.23463 20.1479 5.33329 22.6679 5.33329C25.0759 5.33329 26.6679 5.86263 27.4252 6.19329C27.6012 7.75729 28.0012 11.6506 28.0012 14.6666C28.0012 17.3973 27.7732 20.444 27.5826 22.52ZM25.6092 14.276L24.5519 15.3333L25.6092 16.3906C26.1306 16.912 26.1306 17.7546 25.6092 18.276C25.0879 18.7973 24.2452 18.7973 23.7239 18.276L22.6666 17.2186L21.6092 18.276C21.0879 18.7973 20.2452 18.7973 19.7239 18.276C19.2026 17.7546 19.2026 16.912 19.7239 16.3906L20.7812 15.3333L19.7239 14.276C19.2026 13.7546 19.2026 12.912 19.7239 12.3906C20.2452 11.8693 21.0879 11.8693 21.6092 12.3906L22.6666 13.448L23.7239 12.3906C24.2452 11.8693 25.0879 11.8693 25.6092 12.3906C26.1306 12.912 26.1306 13.7546 25.6092 14.276ZM13.0226 15.0306C11.9706 16.2853 10.7732 17.42 9.46657 18.3986C8.99323 18.7546 8.34123 18.7546 7.86657 18.3986C7.12123 17.84 6.4039 17.224 5.73323 16.568C5.20657 16.052 5.19857 15.208 5.71323 14.6826C6.23057 14.156 7.07323 14.148 7.59857 14.6613C7.94123 14.9973 8.29857 15.3213 8.66657 15.6306C9.50123 14.9306 10.2759 14.156 10.9772 13.3173C11.4492 12.7533 12.2906 12.6773 12.8559 13.152C13.4199 13.624 13.4946 14.4653 13.0226 15.0306Z" fill="url(#paint0_linear_1_3009)"/>
</g>
<defs>
<linearGradient id="paint0_linear_1_3009" x1="29.9711" y1="-4.464" x2="13.4293" y2="35.119" gradientUnits="userSpaceOnUse">
<stop offset="0.123479" stop-color="#10490A"/>
<stop offset="0.553859" stop-color="#00B67A"/>
<stop offset="1" stop-color="#26AF18"/>
</linearGradient>
</defs>
</svg>
