<svg width="32" height="32" viewBox="0 0 32 32" fill="none" xmlns="http://www.w3.org/2000/svg">
<g id="Layer_1">
<path id="Vector" d="M30.6667 12.6666C30.6667 9.71465 29.2227 8.16665 26.4067 8.02798C26.0081 4.45065 25.2761 2.46265 25.1654 2.18132C24.9454 1.60398 24.3147 1.23598 23.7027 1.34398C23.3707 1.39865 23.0734 1.57465 22.868 1.83865C22.2574 2.50532 18.4414 5.77065 14.9041 5.37998C11.4294 4.99732 6.87072 5.34398 4.95205 5.89065C3.02272 6.44132 1.61072 8.17998 1.43872 10.2173C1.37605 10.9627 1.33872 11.6013 1.33472 12.6733C1.33872 13.7346 1.37605 14.3746 1.43872 15.1186C1.57205 16.7026 2.46005 18.096 3.75205 18.9013L4.29338 20.7893C5.07605 23.5173 6.17072 26.2653 7.29605 28.3293C8.07205 29.7493 9.54805 30.6666 11.0601 30.6666C13.6227 30.7066 15.4254 28.0947 14.9027 25.596C14.5774 23.9027 14.0227 22.004 13.3094 20.0733C13.8561 20.0466 14.3934 20.0106 14.9054 19.9546C18.4361 19.5613 22.2587 22.8293 22.8694 23.496C23.1174 23.816 23.5134 24.0093 23.9201 24.008C24.4587 24.016 24.9747 23.6573 25.1681 23.152C25.2787 22.872 26.0094 20.884 26.4094 17.3053C29.2254 17.1653 30.6694 15.6186 30.6694 12.6666H30.6667ZM4.09472 10.44C4.17472 9.49998 4.81205 8.70265 5.68272 8.45332C6.52272 8.21465 8.29205 7.99465 10.2641 7.91732C10.4387 8.80265 10.6667 10.388 10.6667 12.6666C10.6667 14.9453 10.4387 16.5333 10.2641 17.416C8.29205 17.3386 6.52138 17.1186 5.68272 16.8786C4.81205 16.6306 4.17472 15.832 4.09472 14.892C4.03738 14.216 4.00405 13.6333 4.00005 12.6706C4.00405 11.6986 4.03738 11.1173 4.09472 10.44ZM11.7854 27.7373C11.1427 28.2613 10.1027 27.908 9.63605 27.0506C8.56805 25.0973 7.51072 22.3986 6.78405 19.8C7.84938 19.948 9.13472 20.052 10.4707 20.0933C11.2801 22.1373 11.9414 24.2973 12.2827 26.0973C12.404 26.732 12.2054 27.392 11.7854 27.7373ZM23.2214 20.2946C21.4534 18.936 18.5961 17.2546 15.5094 17.2546C14.6614 17.2626 13.8454 17.4013 12.9747 17.4173C13.156 16.344 13.3334 14.7586 13.3334 12.6666C13.3334 10.5746 13.156 8.98932 12.9747 7.91598C13.5334 7.93865 14.0867 7.97198 14.6134 8.02932C18.0427 8.40398 21.2841 6.52798 23.2214 5.03865C23.5814 6.61332 23.9881 9.16532 24.0001 12.6613C23.9881 16.1666 23.5787 18.724 23.2214 20.2946ZM26.6107 14.64C26.6401 14.0093 26.6641 13.3613 26.6667 12.6613C26.6641 11.9653 26.6401 11.32 26.6121 10.692C27.7321 10.7933 28.0001 11.252 28.0001 12.6666C28.0001 14.0813 27.7321 14.54 26.6107 14.6413V14.64Z" fill="url(#paint0_linear_1_3023)"/>
</g>
<defs>
<linearGradient id="paint0_linear_1_3023" x1="29.9779" y1="-6.52109" x2="10.5589" y2="35.7124" gradientUnits="userSpaceOnUse">
<stop offset="0.123479" stop-color="#10490A"/>
<stop offset="0.553859" stop-color="#00B67A"/>
<stop offset="1" stop-color="#26AF18"/>
</linearGradient>
</defs>
</svg>
