<svg width="34" height="34" viewBox="0 0 34 34" fill="none" xmlns="http://www.w3.org/2000/svg">
<g id="Layer_1">
<path id="Vector" d="M30.7969 12.24C30.4541 11.5374 29.6055 11.2484 28.9014 11.5912C28.1987 11.9355 27.9097 12.784 28.254 13.4867C30.0702 17.1913 29.903 20.0416 29.478 21.7317L20.7173 13.3436C19.6251 12.2882 18.1914 11.7371 16.7096 11.8037C15.2164 11.866 13.8437 12.5319 12.8421 13.6765C12.3533 14.2333 11.6946 14.5563 10.9848 14.586C10.3034 14.6073 9.63757 14.3679 9.11482 13.8876L3.92557 7.59763C3.42691 6.99413 2.53724 6.90772 1.93091 7.40638C1.32741 7.90505 1.24241 8.79755 1.73966 9.40105C1.73966 9.40105 7.05499 15.8398 7.09324 15.8766C8.18691 16.932 9.62482 17.4845 11.1024 17.4165C12.5942 17.3542 13.9669 16.6884 14.9713 15.5437C15.4572 14.987 16.1174 14.664 16.8272 14.6342C17.5652 14.6059 18.2183 14.8708 18.7524 15.3865L27.5372 23.7972C25.9462 24.2392 23.2489 24.4177 19.7327 22.5378C19.0414 22.1666 18.1829 22.4287 17.8146 23.12C17.4448 23.81 17.7069 24.6685 18.3954 25.0368C21.0616 26.4605 23.3962 26.921 25.3031 26.921C28.6563 26.921 30.6765 25.4972 30.8068 25.4037C30.9428 25.3045 31.0604 25.1827 31.1525 25.0425C31.2927 24.8342 34.5199 19.8362 30.7955 12.2415L30.7969 12.24Z" fill="url(#paint0_linear_1_3002)"/>
</g>
<defs>
<linearGradient id="paint0_linear_1_3002" x1="31.8488" y1="1.77708" x2="22.5253" y2="33.6412" gradientUnits="userSpaceOnUse">
<stop offset="0.123479" stop-color="#10490A"/>
<stop offset="0.553859" stop-color="#00B67A"/>
<stop offset="1" stop-color="#26AF18"/>
</linearGradient>
</defs>
</svg>
