<svg width="32" height="32" viewBox="0 0 32 32" fill="none" xmlns="http://www.w3.org/2000/svg">
<g id="Component 5">
<path id="Vector" d="M3.50207 4.98909C3.27071 5.07322 3.08141 5.22045 2.93417 5.43079C2.89211 5.49389 2.86056 5.64112 2.83952 5.87249C2.81849 6.18799 2.80797 6.91364 2.80797 8.04943L2.74487 21.8999C2.74487 22.6571 2.75539 23.4353 2.77642 24.2346V24.2977C2.79746 25.3073 2.81323 25.9173 2.82375 26.1276C2.83426 26.3379 2.87107 26.4852 2.93417 26.5693C3.01831 26.6955 3.13399 26.8007 3.28122 26.8848L3.50207 27.011H28.048L28.2688 26.8848C28.4581 26.7796 28.5843 26.6587 28.6474 26.522C28.7105 26.3852 28.7421 26.1644 28.7421 25.8594C28.7421 25.5544 28.7105 25.3336 28.6474 25.1969C28.5843 25.0601 28.4581 24.9392 28.2688 24.834L28.048 24.7078L16.5638 24.6763H5.11112V22.4362L8.45542 19.0604L11.8313 15.7161L13.5034 17.3567C14.6182 18.4715 15.2387 19.0604 15.3649 19.1235C15.6383 19.2287 15.9117 19.2287 16.1852 19.1235C16.3114 19.0604 17.5523 17.851 19.9081 15.4952L23.4417 11.9932L23.4732 13.2236C23.4732 13.8336 23.4785 14.2017 23.489 14.3279C23.4995 14.4541 23.5363 14.5698 23.5994 14.6749C23.7046 14.8642 23.836 14.9957 23.9938 15.0693C24.1515 15.1429 24.3671 15.1797 24.6406 15.1797C24.914 15.1797 25.1138 15.1587 25.24 15.1166C25.3662 15.0746 25.4766 14.9904 25.5713 14.8642C25.6659 14.738 25.7343 14.6118 25.7764 14.4856C25.7974 14.4225 25.8079 13.9493 25.8079 13.0659L25.8395 11.4884C25.8395 10.1212 25.8342 9.30618 25.8237 9.04326C25.8132 8.78034 25.7764 8.59104 25.7133 8.47536C25.6502 8.35968 25.5818 8.27028 25.5082 8.20719C25.4346 8.14408 25.3136 8.07047 25.1454 7.98634L24.8614 7.86014L22.085 7.89169C20.2551 7.91272 19.2876 7.94427 19.1824 7.98634C18.7618 8.17564 18.5514 8.55424 18.5514 9.12214C18.5514 9.37454 18.583 9.57435 18.6461 9.72159C18.7092 9.86882 18.8249 9.99502 18.9931 10.1002L19.214 10.2264L21.7695 10.2895L15.775 16.284L14.1029 14.6118C13.0302 13.5391 12.4097 12.9607 12.2414 12.8766C11.968 12.7714 11.6946 12.7714 11.4211 12.8766C11.2949 12.9397 10.2117 13.9914 8.17147 16.0316L5.11112 19.0604L5.07957 12.3402V5.62008L4.95337 5.43079C4.78511 5.13632 4.48012 4.98909 4.03842 4.98909C3.87016 4.96805 3.69137 4.96805 3.50207 4.98909Z" fill="url(#paint0_linear_1_3053)"/>
</g>
<defs>
<linearGradient id="paint0_linear_1_3053" x1="28.1292" y1="32.9041" x2="15.1295" y2="-0.456498" gradientUnits="userSpaceOnUse">
<stop offset="0.123479" stop-color="#10490A"/>
<stop offset="0.553859" stop-color="#00B67A"/>
<stop offset="1" stop-color="#26AF18"/>
</linearGradient>
</defs>
</svg>
