<svg width="32" height="32" viewBox="0 0 32 32" fill="none" xmlns="http://www.w3.org/2000/svg">
<g id="Layer_1">
<path id="Vector" d="M29.1147 16.356C29.0667 16.312 23.8373 12 21.3333 12C18.8293 12 13.5987 16.312 13.552 16.356C13.416 16.48 13.308 16.6307 13.2333 16.7987C12.8453 17.668 12.0387 19.4787 12.0013 23.3547C12.036 25.628 12.4867 27.2267 12.848 28.5054C12.9667 28.9267 13.284 29.2627 13.6973 29.404C15.1027 29.888 17.2267 30.6187 21.3507 30.668C25.4427 30.6187 27.5667 29.888 28.972 29.404C29.3853 29.2627 29.7333 28.816 29.852 28.3947C30.1827 27.2267 30.6333 25.6267 30.668 23.3214C30.6293 19.4787 29.8227 17.668 29.436 16.7987C29.3613 16.6307 29.252 16.48 29.1173 16.356H29.1147ZM27.4413 27.1054C26.1733 27.5174 24.4107 27.964 21.3493 28C18.2613 27.964 16.4933 27.516 15.2253 27.1054C14.96 26.1227 14.692 24.9227 14.668 23.3467C14.6973 20.4227 15.2173 18.9374 15.5547 18.148C16.892 17.0187 20.4227 14.7014 21.3347 14.668C22.2467 14.7014 25.7773 17.02 27.1147 18.148C27.4507 18.9374 27.972 20.42 28.0013 23.3147C27.9773 24.8854 27.72 26.0734 27.4427 27.1067L27.4413 27.1054ZM23.8987 21.2574C23.9533 21.672 24 22.172 24 22.6667C24 23.1614 23.9533 23.6614 23.8987 24.076C23.82 24.6814 23.348 25.1534 22.7427 25.232C22.328 25.2867 21.828 25.3334 21.3333 25.3334C20.8387 25.3334 20.3387 25.2867 19.924 25.232C19.3187 25.1534 18.8467 24.6814 18.768 24.076C18.7133 23.6614 18.6667 23.1614 18.6667 22.6667C18.6667 22.172 18.7133 21.672 18.768 21.2574C18.8467 20.652 19.3187 20.18 19.924 20.1014C20.3387 20.0467 20.8387 20 21.3333 20C21.828 20 22.328 20.0467 22.7427 20.1014C23.348 20.18 23.82 20.652 23.8987 21.2574ZM14.1973 4.18805L15.7467 3.74538L16.1893 2.19605C16.5187 1.04538 18.1493 1.04538 18.4787 2.19605L18.9213 3.74538L20.4707 4.18805C21.6213 4.51738 21.6213 6.14805 20.4707 6.47738L18.9213 6.92005L18.4787 8.46938C18.1493 9.62005 16.5187 9.62005 16.1893 8.46938L15.7467 6.92005L14.1973 6.47738C13.0467 6.14805 13.0467 4.51738 14.1973 4.18805ZM8.46934 26.4787L6.92001 26.9214L6.47734 28.4707C6.14801 29.6214 4.51734 29.6214 4.18801 28.4707L3.74534 26.9214L2.19601 26.4787C1.04534 26.1494 1.04534 24.5187 2.19601 24.1894L3.74534 23.7467L4.18801 22.1974C4.51734 21.0467 6.14801 21.0467 6.47734 22.1974L6.92001 23.7467L8.46934 24.1894C9.62001 24.5187 9.62001 26.1494 8.46934 26.4787ZM24.72 7.71338L26.0107 7.34405L26.38 6.05338C26.6547 5.09471 28.0133 5.09471 28.288 6.05338L28.6573 7.34405L29.948 7.71338C30.908 7.98805 30.908 9.34671 29.948 9.62138L28.6573 9.99071L28.288 11.2814C28.0133 12.2414 26.6547 12.2414 26.38 11.2814L26.0107 9.99071L24.72 9.62138C23.76 9.34671 23.76 7.98805 24.72 7.71338ZM10.4387 2.25205C7.98401 3.77871 6.66667 6.00005 6.66667 8.66671C6.66667 11.3334 7.98401 13.556 9.84934 15.0814C10.164 15.3387 10.14 15.8054 9.73734 15.8787C8.42934 16.12 7.37467 16.0214 5.86934 15.3854C3.17067 14.264 1.26267 11.5494 1.33601 8.66538C1.26267 5.78138 3.17067 3.06671 5.86934 1.94538C7.37601 1.31071 9.01867 1.21071 10.3267 1.45205C10.7293 1.52671 10.784 2.03471 10.4387 2.24938V2.25205Z" fill="url(#paint0_linear_1_3016)"/>
</g>
<defs>
<linearGradient id="paint0_linear_1_3016" x1="29.9765" y1="-6.51329" x2="10.5636" y2="35.7153" gradientUnits="userSpaceOnUse">
<stop offset="0.123479" stop-color="#10490A"/>
<stop offset="0.553859" stop-color="#00B67A"/>
<stop offset="1" stop-color="#26AF18"/>
</linearGradient>
</defs>
</svg>
