<svg width="20" height="20" viewBox="0 0 20 20" fill="none" xmlns="http://www.w3.org/2000/svg">
<g id="Component 11">
<path id="Vector" fill-rule="evenodd" clip-rule="evenodd" d="M3.54072 8.79083C3.2641 9.06742 3.2641 9.51592 3.54072 9.7925C3.81734 10.0692 4.26584 10.0692 4.54245 9.7925L9.16642 5.16858V16.7917C9.16642 17.1829 9.4835 17.5 9.87475 17.5C10.2659 17.5 10.5831 17.1829 10.5831 16.7917V5.16817L15.2074 9.7925C15.484 10.0692 15.9325 10.0692 16.2091 9.7925C16.4858 9.51592 16.4858 9.06742 16.2091 8.79083L10.3758 2.9575C10.3348 2.91642 10.2892 2.88092 10.2403 2.8515C10.1408 2.79158 10.0274 2.75667 9.91 2.75083C9.89834 2.75033 9.88667 2.75 9.87492 2.75C9.67417 2.75 9.49275 2.8335 9.36384 2.96767L3.54072 8.79083Z" fill="#011624"/>
</g>
</svg>
