<svg width="24" height="24" viewBox="0 0 24 24" fill="none" xmlns="http://www.w3.org/2000/svg">
<g id="Group">
<path id="Vector" d="M12 0C15.2605 0 15.6673 0.012 16.9465 0.0720002C18.2245 0.132 19.0945 0.332401 19.8601 0.630002C20.6521 0.934803 21.3193 1.3476 21.9865 2.01361C22.5967 2.61349 23.0689 3.33912 23.3701 4.14001C23.6665 4.90442 23.8681 5.77562 23.9281 7.05362C23.9845 8.33283 24.0001 8.73963 24.0001 12C24.0001 15.2605 23.9881 15.6673 23.9281 16.9465C23.8681 18.2245 23.6665 19.0945 23.3701 19.8601C23.0697 20.6614 22.5974 21.3872 21.9865 21.9865C21.3865 22.5964 20.6608 23.0686 19.8601 23.3701C19.0957 23.6665 18.2245 23.8681 16.9465 23.9281C15.6673 23.9845 15.2605 24.0001 12 24.0001C8.73963 24.0001 8.33283 23.9881 7.05362 23.9281C5.77562 23.8681 4.90562 23.6665 4.14001 23.3701C3.33881 23.0695 2.61304 22.5972 2.01361 21.9865C1.4033 21.3867 0.931119 20.6611 0.630002 19.8601C0.332401 19.0957 0.132 18.2245 0.0720002 16.9465C0.0156 15.6673 0 15.2605 0 12C0 8.73963 0.012 8.33283 0.0720002 7.05362C0.132 5.77442 0.332401 4.90562 0.630002 4.14001C0.930291 3.33863 1.40256 2.61279 2.01361 2.01361C2.61321 1.40308 3.33893 0.930879 4.14001 0.630002C4.90562 0.332401 5.77442 0.132 7.05362 0.0720002C8.33283 0.0156 8.73963 0 12 0ZM12 6.00002C10.4087 6.00002 8.88261 6.63216 7.75739 7.75739C6.63216 8.88261 6.00002 10.4087 6.00002 12C6.00002 13.5914 6.63216 15.1175 7.75739 16.2427C8.88261 17.3679 10.4087 18.0001 12 18.0001C13.5914 18.0001 15.1175 17.3679 16.2427 16.2427C17.3679 15.1175 18.0001 13.5914 18.0001 12C18.0001 10.4087 17.3679 8.88261 16.2427 7.75739C15.1175 6.63216 13.5914 6.00002 12 6.00002ZM19.8001 5.70002C19.8001 5.30219 19.642 4.92067 19.3607 4.63936C19.0795 4.35805 18.6979 4.20001 18.3001 4.20001C17.9023 4.20001 17.5207 4.35805 17.2394 4.63936C16.9581 4.92067 16.8001 5.30219 16.8001 5.70002C16.8001 6.09784 16.9581 6.47937 17.2394 6.76068C17.5207 7.04198 17.9023 7.20003 18.3001 7.20003C18.6979 7.20003 19.0795 7.04198 19.3607 6.76068C19.642 6.47937 19.8001 6.09784 19.8001 5.70002ZM12 8.40003C12.9548 8.40003 13.8705 8.77931 14.5456 9.45445C15.2207 10.1296 15.6001 11.0453 15.6001 12C15.6001 12.9548 15.2207 13.8705 14.5456 14.5456C13.8705 15.2207 12.9548 15.6001 12 15.6001C11.0453 15.6001 10.1296 15.2207 9.45445 14.5456C8.77931 13.8705 8.40003 12.9548 8.40003 12C8.40003 11.0453 8.77931 10.1296 9.45445 9.45445C10.1296 8.77931 11.0453 8.40003 12 8.40003Z" fill="#011624"/>
</g>
</svg>
