<svg width="28" height="28" viewBox="0 0 28 28" fill="none" xmlns="http://www.w3.org/2000/svg">
<g id="Component 1">
<path id="Vector" d="M23.2917 7.39524C22.0886 7.13789 20.9992 6.50298 20.1822 5.58307C19.3652 4.66315 18.8634 3.50635 18.75 2.28128V1.75H14.5998V18.2206C14.5972 18.9499 14.3662 19.66 13.9393 20.2511C13.5123 20.8421 12.9109 21.2847 12.2196 21.5164C11.5282 21.7481 10.7816 21.7574 10.0846 21.5428C9.38773 21.3283 8.77553 20.9008 8.3341 20.3205C7.88581 19.7304 7.63712 19.0128 7.62412 18.2719C7.61111 17.531 7.83446 16.8051 8.26178 16.1997C8.68908 15.5942 9.29814 15.1406 10.0006 14.9046C10.7031 14.6687 11.4625 14.6625 12.1687 14.8872V10.6708C10.5939 10.4531 8.99056 10.7331 7.58278 11.4716C6.17501 12.21 5.03325 13.37 4.31723 14.7894C3.6012 16.2086 3.3467 17.8163 3.58935 19.3873C3.83199 20.9585 4.55964 22.4144 5.67049 23.5515C6.72986 24.6355 8.0882 25.3791 9.57212 25.6875C11.056 25.996 12.5983 25.8553 14.0018 25.2834C15.4054 24.7115 16.6067 23.7343 17.4524 22.4765C18.2981 21.2188 18.7499 19.7375 18.75 18.2219V9.80585C20.4272 11.0049 22.4383 11.6479 24.5 11.6442V7.52053C24.094 7.52103 23.6889 7.47903 23.2917 7.39524Z" fill="#011624"/>
</g>
</svg>
