<svg width="48" height="37" viewBox="0 0 48 37" fill="none" xmlns="http://www.w3.org/2000/svg">
<g id="Group">
<path id="Vector" d="M8.66458 36.915V34.4568C8.66458 33.5141 8.09082 32.8999 7.14905 32.8999C6.65442 32.8999 6.12527 33.064 5.75623 33.5923C5.4694 33.1412 5.06377 32.8999 4.44551 32.8999C4.21572 32.8899 3.98696 32.9371 3.77978 33.0373C3.5726 33.1374 3.39347 33.2873 3.25854 33.4735V32.979H2.47996V36.912H3.25854V34.6616C3.25854 33.9692 3.66807 33.6377 4.24172 33.6377C4.81548 33.6377 5.1429 34.0068 5.1429 34.6616V36.915H5.92148V34.6616C5.92148 33.9692 6.33101 33.6377 6.90477 33.6377C7.47853 33.6377 7.80595 34.0068 7.80595 34.6616V36.915H8.66458ZM21.4472 33.0225H20.0128V31.8354H19.2363V33.0225H18.4172V33.7149H19.2363V35.5628C19.2363 36.464 19.5637 36.9971 20.547 36.9971C20.9195 36.9893 21.2846 36.8909 21.6104 36.7103L21.3641 36.0179C21.1431 36.156 20.8868 36.2271 20.6261 36.2226C20.2166 36.2226 20.0119 35.9762 20.0119 35.5667V33.6833H21.4462V33.0274L21.4472 33.0225ZM28.7397 32.8999C28.5277 32.8951 28.3181 32.9455 28.1313 33.046C27.9446 33.1466 27.787 33.2939 27.6743 33.4735V32.979H26.8958V36.912H27.6743V34.7031C27.6743 34.0473 28.0017 33.6377 28.535 33.6377C28.7148 33.645 28.8935 33.6726 29.0671 33.7198L29.3135 32.9819C29.1256 32.9346 28.9333 32.907 28.7397 32.8999ZM17.7189 33.3094C17.3094 33.0225 16.7356 32.8999 16.1213 32.8999C15.138 32.8999 14.5237 33.3509 14.5237 34.1294C14.5237 34.7852 14.9748 35.1533 15.8344 35.2769L16.244 35.3175C16.695 35.3996 16.9818 35.5637 16.9818 35.7685C16.9818 36.0554 16.6544 36.2632 16.0392 36.2632C15.5694 36.2728 15.1092 36.129 14.7284 35.8536L14.3189 36.4679C14.8927 36.8774 15.5891 36.9625 16.0006 36.9625C17.1481 36.9625 17.7624 36.4304 17.7624 35.6924C17.7624 34.9999 17.2678 34.6685 16.4101 34.5449L16.0006 34.5043C15.6316 34.4638 15.3082 34.3402 15.3082 34.0947C15.3082 33.8079 15.6356 33.6002 16.0866 33.6002C16.5813 33.6002 17.0699 33.8049 17.3163 33.9276L17.7189 33.3094ZM29.6003 34.9484C29.6003 36.1355 30.3789 36.9971 31.649 36.9971C32.2227 36.9971 32.6323 36.8744 33.0418 36.5461L32.6323 35.9317C32.3424 36.1666 31.9816 36.2966 31.6085 36.3008C30.916 36.3008 30.3789 35.7685 30.3789 34.9901C30.3789 34.2115 30.9091 33.6833 31.6085 33.6833C31.9816 33.6874 32.3424 33.8174 32.6323 34.0522L33.0418 33.4379C32.6323 33.1105 32.2227 32.9869 31.649 32.9869C30.4195 32.9048 29.6003 33.7654 29.6003 34.9534V34.9484ZM24.1102 32.8999C22.9627 32.8999 22.1842 33.7189 22.1842 34.9484C22.1842 36.1781 23.0033 36.9971 24.1913 36.9971C24.7692 37.0094 25.3336 36.8213 25.7889 36.4649L25.3794 35.8912C25.0501 36.1463 24.6482 36.2898 24.2319 36.3008C23.6996 36.3008 23.1259 35.9732 23.0448 35.2769H25.9541V34.9495C25.9541 33.7198 25.2161 32.8999 24.1102 32.8999ZM24.0696 33.6377C24.6434 33.6377 25.0529 34.0068 25.0935 34.621H22.9637C23.0863 34.0473 23.4583 33.6377 24.0696 33.6377ZM13.4583 34.9484V32.9819H12.6797V33.4765C12.3929 33.1075 11.9873 32.9027 11.4096 32.9027C10.3037 32.9027 9.48364 33.7634 9.48364 34.9514C9.48364 36.1395 10.3027 37.0001 11.4096 37.0001C11.9834 37.0001 12.3929 36.7953 12.6797 36.4264V36.921H13.4583V34.9484ZM10.3037 34.9484C10.3037 34.2106 10.7548 33.6377 11.5333 33.6377C12.2712 33.6377 12.7203 34.2115 12.7203 34.9484C12.7203 35.727 12.2257 36.2592 11.5333 36.2592C10.7548 36.2997 10.3037 35.6854 10.3037 34.9484ZM40.5816 32.8999C40.3696 32.8951 40.16 32.9455 39.9732 33.046C39.7864 33.1466 39.629 33.2939 39.5162 33.4735V32.979H38.7378V36.912H39.5153V34.7031C39.5153 34.0473 39.8427 33.6377 40.3759 33.6377C40.5558 33.645 40.7344 33.6726 40.9081 33.7198L41.1544 32.9819C40.9665 32.9346 40.7753 32.907 40.5816 32.8999ZM37.5497 34.9484V32.9819H36.7712V33.4765C36.4844 33.1075 36.0787 32.9027 35.5011 32.9027C34.3951 32.9027 33.575 33.7634 33.575 34.9514C33.575 36.1395 34.394 37.0001 35.5011 37.0001C36.0747 37.0001 36.4844 36.7953 36.7712 36.4264V36.921H37.5497V34.9484ZM34.3951 34.9484C34.3951 34.2106 34.8461 33.6377 35.6247 33.6377C36.3627 33.6377 36.8118 34.2115 36.8118 34.9484C36.8118 35.727 36.3172 36.2592 35.6247 36.2592C34.8461 36.2997 34.3951 35.6854 34.3951 34.9484ZM45.4575 34.9484V31.4249H44.679V33.4735C44.3921 33.1046 43.9866 32.8999 43.4088 32.8999C42.3029 32.8999 41.4828 33.7604 41.4828 34.9484C41.4828 36.1366 42.3019 36.9971 43.4088 36.9971C43.9826 36.9971 44.3921 36.7924 44.679 36.4234V36.918H45.4575V34.9484ZM42.3029 34.9484C42.3029 34.2106 42.754 33.6377 43.5324 33.6377C44.2704 33.6377 44.7195 34.2115 44.7195 34.9484C44.7195 35.727 44.2249 36.2592 43.5324 36.2592C42.7529 36.3008 42.3029 35.6864 42.3029 34.9484Z" fill="white"/>
<path id="Vector_2" d="M16.8184 3.15483H31.0354V26.3441H16.8184V3.15483Z" fill="#FF5F00"/>
<path id="Vector_3" d="M18.2526 14.7493C18.253 12.5185 18.7583 10.3167 19.7302 8.30877C20.7022 6.30077 22.1159 4.53881 23.8654 3.15461C21.6897 1.44403 19.0765 0.380068 16.3247 0.0844023C13.5729 -0.211263 10.7934 0.273394 8.30401 1.48288C5.81455 2.69226 3.7156 4.57776 2.24724 6.92376C0.77878 9.26976 0 11.9816 0 14.7493C0 17.5169 0.77878 20.2288 2.24724 22.5748C3.7156 24.9207 5.81455 26.8062 8.30401 28.0157C10.7934 29.2252 13.5729 29.7097 16.3247 29.4141C19.0765 29.1185 21.6897 28.0545 23.8654 26.3438C22.1159 24.9598 20.7022 23.1977 19.7302 21.1898C18.7583 19.1819 18.253 16.9801 18.2526 14.7493Z" fill="#EB001B"/>
<path id="Vector_4" d="M47.7501 14.7504C47.7521 17.516 46.9757 20.2265 45.5097 22.5715C44.0436 24.9167 41.9471 26.8019 39.46 28.0115C36.9729 29.2211 34.1956 29.7062 31.4457 29.4116C28.6957 29.1169 26.0842 28.0541 23.91 26.345C25.6598 24.9612 27.0738 23.1992 28.0459 21.1912C29.018 19.1832 29.523 16.9813 29.523 14.7504C29.523 12.5194 29.018 10.3175 28.0459 8.3095C27.0738 6.30151 25.6598 4.53954 23.91 3.15576C26.0842 1.44661 28.6957 0.383883 31.4457 0.0892451C34.1956 -0.205495 36.9729 0.279675 39.46 1.48926C41.9471 2.69895 44.0436 4.58404 45.5097 6.92922C46.9757 9.2743 47.7521 11.9847 47.7501 14.7504Z" fill="#F79E1B"/>
</g>
</svg>
