<svg width="138" height="65" viewBox="0 0 138 65" fill="none" xmlns="http://www.w3.org/2000/svg">
<g id="67b3682cc0f1f956e16eff5e_Digital%20Currencies.svg" clip-path="url(#clip0_1_2766)">
<path id="Vector" d="M131.911 0.437257H6.08816C2.96719 0.437257 0.437135 2.96731 0.437135 6.08829V58.853C0.437135 61.974 2.96719 64.5041 6.08816 64.5041H131.911C135.032 64.5041 137.562 61.974 137.562 58.853V6.08829C137.562 2.96731 135.032 0.437257 131.911 0.437257Z" fill="#141414"/>
<path id="Vector_2" d="M131.911 0.437257H6.08816C2.96719 0.437257 0.437135 2.96731 0.437135 6.08829V58.853C0.437135 61.974 2.96719 64.5041 6.08816 64.5041H131.911C135.032 64.5041 137.562 61.974 137.562 58.853V6.08829C137.562 2.96731 135.032 0.437257 131.911 0.437257Z" stroke="#3D3D3D" stroke-width="0.872709"/>
<path id="Vector_3" d="M85.5313 22.2232C83.8384 21.6064 82.049 21.2969 80.2473 21.3093C74.4207 21.3093 70.3057 24.2444 70.2765 28.4578C70.2401 31.5531 73.2007 33.2974 75.4404 34.3317C77.7382 35.395 78.5066 36.0651 78.4993 37.0156C78.4847 38.4612 76.6639 39.1167 74.9706 39.1167C72.6436 39.1167 71.3726 38.7926 69.4171 37.9806L68.6924 37.6419L67.8658 42.4926C69.2823 43.0825 71.8351 43.5887 74.4717 43.6324C80.6661 43.6324 84.7156 40.7154 84.7629 36.2326C84.8139 33.7599 83.2116 31.8917 79.8394 30.3478C77.7892 29.3462 76.5183 28.6762 76.5183 27.6602C76.5183 26.7608 77.6071 25.7993 79.8832 25.7993C81.3979 25.7627 82.9032 26.0469 84.3004 26.6332L84.8467 26.8773L85.6733 22.1905L85.5313 22.2232ZM100.651 21.7025H96.0993C94.6828 21.7025 93.6157 22.0922 92.9966 23.4978L84.2421 43.3301H90.4366L91.6748 40.0782L99.2347 40.0855C99.4132 40.8465 99.9594 43.3301 99.9594 43.3301H105.422L100.651 21.7025ZM61.8971 21.5204H67.8003L64.1076 43.159H58.2118L61.8971 21.5131V21.5204ZM46.9118 33.4468L47.5236 36.4511L53.292 21.7025H59.5446L50.2549 43.301H44.0168L38.9185 25.0127C38.8359 24.7112 38.642 24.4522 38.3759 24.288C36.5383 23.3389 34.5913 22.6184 32.5784 22.1431L32.6586 21.688H42.1596C43.4486 21.7389 44.4865 22.1431 44.8325 23.5197L46.9082 33.4577L46.9118 33.4468ZM93.3681 35.6536L95.7206 29.6012C95.6915 29.6668 96.2049 28.3521 96.5035 27.5401L96.9077 29.4082L98.2734 35.6499H93.3645L93.3681 35.6536Z" fill="white"/>
</g>
<defs>
<clipPath id="clip0_1_2766">
<rect width="137.73" height="64.8141" fill="white" transform="scale(1.00196)"/>
</clipPath>
</defs>
</svg>
