<svg width="80" height="20" viewBox="0 0 80 20" fill="none" xmlns="http://www.w3.org/2000/svg">
<g id="Img">
<path id="Vector" d="M21.0051 7.02771H29.0938V8.52859H25.9133V16.9658H24.1644V8.52859H20.998V7.02771H21.0051ZM28.7483 9.76998H30.2433V11.1586H30.2715C30.3209 10.9623 30.4126 10.7729 30.5466 10.5906C30.6806 10.4082 30.8428 10.2329 31.0332 10.0856C31.2236 9.93129 31.4351 9.81206 31.6679 9.71387C31.9006 9.6227 32.1403 9.5736 32.3801 9.5736C32.5635 9.5736 32.6975 9.58061 32.768 9.58763C32.8385 9.59464 32.909 9.60867 32.9866 9.61568V11.1446C32.8738 11.1236 32.7609 11.1096 32.641 11.0955C32.5212 11.0815 32.4083 11.0745 32.2955 11.0745C32.0275 11.0745 31.7736 11.1306 31.5339 11.2358C31.2941 11.341 31.0896 11.5023 30.9133 11.7057C30.737 11.9161 30.5959 12.1686 30.4902 12.4772C30.3844 12.7858 30.335 13.1364 30.335 13.5362V16.9588H28.7412V9.76998L28.7483 9.76998ZM40.3137 16.9658H38.7481V15.9629H38.7199C38.5225 16.3276 38.2333 16.6151 37.8455 16.8325C37.4576 17.05 37.0627 17.1622 36.6607 17.1622C35.7087 17.1622 35.0176 16.9307 34.5945 16.4608C34.1713 15.9909 33.9598 15.2826 33.9598 14.3357V9.76998H35.5535V14.1815C35.5535 14.8127 35.6734 15.2615 35.9203 15.521C36.16 15.7805 36.5056 15.9138 36.9428 15.9138C37.2813 15.9138 37.5563 15.8647 37.782 15.7595C38.0077 15.6543 38.191 15.521 38.325 15.3457C38.4661 15.1774 38.5648 14.967 38.6283 14.7285C38.6917 14.49 38.7199 14.2305 38.7199 13.95V9.77699H40.3137V16.9658ZM43.0288 14.6584C43.0781 15.1213 43.2544 15.4439 43.5577 15.6332C43.868 15.8156 44.2347 15.9138 44.6648 15.9138C44.8129 15.9138 44.9822 15.8998 45.1726 15.8787C45.363 15.8577 45.5464 15.8086 45.7085 15.7455C45.8778 15.6823 46.0118 15.5841 46.1246 15.4579C46.2304 15.3317 46.2798 15.1704 46.2727 14.967C46.2657 14.7636 46.1881 14.5952 46.0471 14.469C45.906 14.3357 45.7297 14.2376 45.5111 14.1534C45.2925 14.0763 45.0457 14.0061 44.7636 13.95C44.4815 13.8939 44.1994 13.8308 43.9103 13.7677C43.6141 13.7045 43.3249 13.6204 43.0499 13.5292C42.7749 13.438 42.5281 13.3118 42.3094 13.1505C42.0908 12.9962 41.9145 12.7928 41.7876 12.5473C41.6536 12.3018 41.5901 12.0003 41.5901 11.6356C41.5901 11.2428 41.6889 10.9202 41.8793 10.6537C42.0697 10.3872 42.3165 10.1768 42.6056 10.0154C42.9018 9.85414 43.2262 9.74192 43.5859 9.67179C43.9455 9.60867 44.2911 9.5736 44.6155 9.5736C44.9892 9.5736 45.3489 9.61568 45.6874 9.69283C46.0259 9.76998 46.3362 9.89622 46.6112 10.0786C46.8862 10.2539 47.1119 10.4854 47.2953 10.7659C47.4786 11.0464 47.5915 11.3901 47.6408 11.7899H45.9765C45.899 11.4111 45.7297 11.1516 45.4547 11.0254C45.1796 10.8921 44.8623 10.829 44.5097 10.829C44.3969 10.829 44.2629 10.836 44.1077 10.8571C43.9526 10.8781 43.8115 10.9132 43.6705 10.9623C43.5365 11.0114 43.4237 11.0885 43.3249 11.1867C43.2333 11.2849 43.1839 11.4111 43.1839 11.5724C43.1839 11.7688 43.2544 11.9231 43.3884 12.0423C43.5224 12.1616 43.6987 12.2598 43.9173 12.3439C44.1359 12.4211 44.3828 12.4912 44.6648 12.5473C44.9469 12.6034 45.2361 12.6665 45.5322 12.7297C45.8214 12.7928 46.1035 12.8769 46.3855 12.9681C46.6676 13.0593 46.9145 13.1855 47.1331 13.3468C47.3517 13.5082 47.528 13.7045 47.662 13.943C47.796 14.1815 47.8665 14.483 47.8665 14.8337C47.8665 15.2615 47.7678 15.6192 47.5703 15.9208C47.3728 16.2154 47.119 16.4608 46.8087 16.6432C46.4984 16.8255 46.1458 16.9658 45.765 17.05C45.3842 17.1341 45.0033 17.1762 44.6296 17.1762C44.1712 17.1762 43.7481 17.1271 43.3602 17.0219C42.9723 16.9167 42.6338 16.7624 42.3518 16.559C42.0697 16.3486 41.844 16.0891 41.6818 15.7805C41.5196 15.4719 41.435 15.1002 41.4209 14.6724H43.0288V14.6584ZM48.2896 9.76998H49.4955V7.60983H51.0893V9.76998H52.5279V10.9553H51.0893V14.7986C51.0893 14.967 51.0963 15.1072 51.1104 15.2335C51.1245 15.3527 51.1598 15.4579 51.2092 15.5421C51.2585 15.6262 51.3361 15.6893 51.4419 15.7314C51.5477 15.7735 51.6817 15.7946 51.865 15.7946C51.9779 15.7946 52.0907 15.7946 52.2035 15.7875C52.3164 15.7805 52.4292 15.7665 52.542 15.7384V16.9658C52.3657 16.9868 52.1894 17.0009 52.0272 17.0219C51.858 17.0429 51.6887 17.05 51.5124 17.05C51.0893 17.05 50.7508 17.0079 50.4969 16.9307C50.243 16.8536 50.0385 16.7344 49.8975 16.5801C49.7494 16.4258 49.6577 16.2364 49.6013 16.005C49.5519 15.7735 49.5167 15.507 49.5096 15.2124V10.9693H48.3037V9.76998H48.2896ZM53.6562 9.76998H55.1654V10.7449H55.1936C55.4193 10.324 55.7296 10.0295 56.1315 9.84713C56.5335 9.66478 56.9637 9.5736 57.4362 9.5736C58.0074 9.5736 58.501 9.67179 58.9242 9.87518C59.3473 10.0716 59.6999 10.3451 59.982 10.6958C60.264 11.0464 60.4686 11.4532 60.6096 11.9161C60.7506 12.379 60.8212 12.8769 60.8212 13.403C60.8212 13.8869 60.7577 14.3568 60.6308 14.8057C60.5038 15.2615 60.3134 15.6613 60.0595 16.012C59.8057 16.3626 59.4813 16.6362 59.0864 16.8466C58.6914 17.057 58.2331 17.1622 57.6971 17.1622C57.4644 17.1622 57.2317 17.1411 56.9989 17.0991C56.7662 17.057 56.5405 16.9868 56.329 16.8957C56.1174 16.8045 55.9129 16.6853 55.7366 16.538C55.5533 16.3907 55.4052 16.2224 55.2782 16.033H55.25V19.6239H53.6562V9.76998ZM59.2274 13.3749C59.2274 13.0523 59.1851 12.7367 59.1005 12.4281C59.0158 12.1195 58.8889 11.853 58.7196 11.6145C58.5504 11.3761 58.3388 11.1867 58.092 11.0464C57.8381 10.9062 57.549 10.829 57.2246 10.829C56.5547 10.829 56.0469 11.0605 55.7084 11.5233C55.3699 11.9862 55.2006 12.6034 55.2006 13.3749C55.2006 13.7396 55.243 14.0762 55.3346 14.3848C55.4263 14.6934 55.5533 14.9599 55.7366 15.1844C55.9129 15.4088 56.1245 15.5841 56.3713 15.7104C56.6181 15.8436 56.9073 15.9068 57.2317 15.9068C57.5984 15.9068 57.9016 15.8296 58.1555 15.6823C58.4094 15.5351 58.6139 15.3387 58.7761 15.1072C58.9383 14.8688 59.0581 14.6023 59.1287 14.3007C59.1921 13.9991 59.2274 13.6905 59.2274 13.3749ZM62.0412 7.02771H63.6349V8.52859H62.0412V7.02771ZM62.0412 9.76998H63.6349V16.9658H62.0412V9.76998ZM65.0595 7.02771H66.6532V16.9658H65.0595V7.02771ZM71.5403 17.1622C70.9621 17.1622 70.4473 17.064 69.9959 16.8746C69.5446 16.6853 69.1638 16.4188 68.8464 16.0891C68.5361 15.7525 68.2964 15.3527 68.1342 14.8898C67.972 14.4269 67.8873 13.9149 67.8873 13.3609C67.8873 12.8138 67.972 12.3089 68.1342 11.846C68.2964 11.3831 68.5361 10.9833 68.8464 10.6467C69.1567 10.31 69.5446 10.0505 69.9959 9.86115C70.4473 9.67179 70.9621 9.5736 71.5403 9.5736C72.1186 9.5736 72.6334 9.67179 73.0847 9.86115C73.5361 10.0505 73.9169 10.317 74.2342 10.6467C74.5445 10.9833 74.7843 11.3831 74.9465 11.846C75.1087 12.3089 75.1933 12.8138 75.1933 13.3609C75.1933 13.9149 75.1087 14.4269 74.9465 14.8898C74.7843 15.3527 74.5445 15.7525 74.2342 16.0891C73.9239 16.4258 73.5361 16.6853 73.0847 16.8746C72.6334 17.064 72.1186 17.1622 71.5403 17.1622ZM71.5403 15.9068C71.8929 15.9068 72.2032 15.8296 72.4642 15.6823C72.7251 15.5351 72.9366 15.3387 73.1059 15.1002C73.2751 14.8618 73.395 14.5882 73.4797 14.2867C73.5572 13.9851 73.5995 13.6765 73.5995 13.3609C73.5995 13.0523 73.5572 12.7507 73.4797 12.4421C73.4021 12.1335 73.2751 11.867 73.1059 11.6285C72.9366 11.3901 72.7251 11.2007 72.4642 11.0534C72.2032 10.9062 71.8929 10.829 71.5403 10.829C71.1877 10.829 70.8774 10.9062 70.6165 11.0534C70.3556 11.2007 70.144 11.3971 69.9748 11.6285C69.8055 11.867 69.6856 12.1335 69.601 12.4421C69.5234 12.7507 69.4811 13.0523 69.4811 13.3609C69.4811 13.6765 69.5234 13.9851 69.601 14.2867C69.6786 14.5882 69.8055 14.8618 69.9748 15.1002C70.144 15.3387 70.3556 15.5351 70.6165 15.6823C70.8774 15.8366 71.1877 15.9068 71.5403 15.9068ZM75.6587 9.76998H76.8647V7.60983H78.4584V9.76998H79.897V10.9553H78.4584V14.7986C78.4584 14.967 78.4655 15.1072 78.4796 15.2335C78.4937 15.3527 78.5289 15.4579 78.5783 15.5421C78.6277 15.6262 78.7052 15.6893 78.811 15.7314C78.9168 15.7735 79.0508 15.7946 79.2342 15.7946C79.347 15.7946 79.4598 15.7946 79.5727 15.7875C79.6855 15.7805 79.7983 15.7665 79.9112 15.7384V16.9658C79.7349 16.9868 79.5586 17.0009 79.3964 17.0219C79.2271 17.0429 79.0578 17.05 78.8815 17.05C78.4584 17.05 78.1199 17.0079 77.866 16.9307C77.6122 16.8536 77.4077 16.7344 77.2666 16.5801C77.1185 16.4258 77.0269 16.2364 76.9704 16.005C76.9211 15.7735 76.8858 15.507 76.8788 15.2124V10.9693H75.6729V9.76998L75.6587 9.76998Z" fill="white"/>
<path id="Vector_2" d="M19.1433 7.02771H11.8373L9.58066 0.112427L7.31695 7.02771L0.0109863 7.0207L5.92768 11.2989L3.66397 18.2072L9.58066 13.936L15.4903 18.2072L13.2336 11.2989L19.1433 7.02771Z" fill="#00B67A"/>
<path id="Vector_3" d="M13.7415 12.8627L13.2338 11.299L9.58081 13.9356L13.7415 12.8627Z" fill="#005128"/>
</g>
</svg>
