<svg width="138" height="65" viewBox="0 0 138 65" fill="none" xmlns="http://www.w3.org/2000/svg">
<g id="67b3682cc0f1f956e16eff61_Digital%20Currencies%20(4).svg" clip-path="url(#clip0_1_2811)">
<path id="Vector" d="M131.911 0.437135H6.08816C2.96719 0.437135 0.437135 2.96719 0.437135 6.08816V58.8529C0.437135 61.9739 2.96719 64.5039 6.08816 64.5039H131.911C135.032 64.5039 137.562 61.9739 137.562 58.8529V6.08816C137.562 2.96719 135.032 0.437135 131.911 0.437135Z" fill="#141414"/>
<path id="Vector_2" d="M131.911 0.437135H6.08816C2.96719 0.437135 0.437135 2.96719 0.437135 6.08816V58.8529C0.437135 61.9739 2.96719 64.5039 6.08816 64.5039H131.911C135.032 64.5039 137.562 61.9739 137.562 58.8529V6.08816C137.562 2.96719 135.032 0.437135 131.911 0.437135Z" stroke="#3D3D3D" stroke-width="0.872709"/>
<path id="Vector_3" d="M40.4166 34.9163C39.0688 40.3517 33.5696 43.6652 28.1338 42.3173C22.6983 40.9696 19.3849 35.4702 20.7328 30.0347C22.0808 24.5989 27.5799 21.2853 33.0153 22.6333C33.0245 22.6355 33.0339 22.6378 33.043 22.6403C38.4641 24.0008 41.7623 29.4912 40.4166 34.9163Z" fill="#F9CD6F"/>
<path id="Vector_4" d="M32.8743 31.0001C32.5574 32.2677 30.6245 31.6179 29.997 31.4627L30.5515 29.2447C31.1693 29.3969 33.1912 29.6882 32.8647 31.0001H32.8743ZM32.5289 34.5844C32.1867 35.9656 29.8609 35.2181 29.1066 35.0308L29.7181 32.5814C30.4723 32.7715 32.8868 33.1422 32.5289 34.5844ZM35.0639 31.0192C35.2636 29.6692 34.2368 28.9437 32.8458 28.4621L33.3021 26.6337L32.1773 26.3549L31.7338 28.1358C31.4422 28.063 31.1412 27.9932 30.8433 27.9267L31.2868 26.1267L30.1746 25.8479L29.7183 27.6763L29.0085 27.518L27.4716 27.1345L27.1769 28.3229C27.1769 28.3229 28.0007 28.513 27.985 28.5257C28.2996 28.5639 28.5292 28.8434 28.5047 29.1595L27.985 31.2414C28.024 31.2503 28.0623 31.2629 28.099 31.2796L27.9818 31.2478L27.256 34.1664C27.188 34.3799 26.9599 34.4974 26.7461 34.4294C26.7461 34.4451 25.9346 34.2298 25.9346 34.2298L25.3832 35.4974L26.8312 35.8556L27.6233 36.0617L27.1639 37.9089L28.2761 38.1878L28.7324 36.3594C29.0322 36.4418 29.3272 36.5177 29.6165 36.5875L29.1666 38.4223L30.2788 38.698L30.7384 36.8537C32.6395 37.2122 34.0622 37.0692 34.6644 35.3519C35.1492 33.9702 34.639 33.1748 33.6408 32.6551C34.3696 32.4872 34.9087 32.0206 35.0639 31.0192Z" fill="#1E1E1E"/>
<path id="Vector_5" d="M46.8345 39.4347C47.4268 39.4365 48.0095 39.2857 48.5267 38.9973C49.059 38.7135 49.5272 38.3226 49.902 37.8502C50.2926 37.3504 50.5997 36.7908 50.8114 36.1929C51.0349 35.575 51.1482 34.9232 51.1473 34.2663C51.1829 33.5999 51.0405 32.936 50.7352 32.3428C50.4629 31.8833 49.9556 31.6489 49.2206 31.6489C48.9002 31.6599 48.5817 31.7035 48.2698 31.7788C47.8827 31.8653 47.5245 32.0509 47.2303 32.3174L45.551 39.3395L45.8204 39.3902C45.9004 39.4098 45.9823 39.4226 46.0643 39.4283C46.1694 39.4412 46.2753 39.4465 46.3812 39.444L46.8345 39.4347ZM50.1712 28.4581C50.9048 28.4411 51.633 28.5908 52.3006 28.8954C52.8801 29.1717 53.3894 29.5758 53.79 30.0774C54.2002 30.5963 54.5018 31.192 54.6772 31.8296C54.8693 32.5328 54.964 33.2589 54.9592 33.9877C54.9583 36.2556 54.0793 38.4347 52.5066 40.0687C51.7441 40.8508 50.837 41.4769 49.8354 41.9129C48.7852 42.3751 47.6493 42.6108 46.5019 42.6037H45.6906C45.2495 42.5894 44.8092 42.5514 44.3723 42.4896C43.8387 42.4123 43.3098 42.3067 42.788 42.1727C42.2409 42.0429 41.7098 41.8537 41.2037 41.6088L45.6559 22.9572L49.6328 22.3235L48.0485 28.9431C48.3785 28.7938 48.7209 28.6741 49.072 28.5851C49.4338 28.497 49.8055 28.4532 50.1778 28.4553L50.1712 28.4581Z" fill="white"/>
<path id="Vector_6" d="M60.9163 27.0988C60.398 27.1039 59.8926 26.9378 59.4776 26.6268C59.0377 26.2788 58.7999 25.7348 58.8438 25.1755C58.842 24.8267 58.9163 24.4815 59.0624 24.1646C59.2022 23.8559 59.3986 23.5764 59.6424 23.3408C59.8858 23.1094 60.1678 22.9228 60.4757 22.7893C60.7961 22.6517 61.1413 22.5817 61.4897 22.5833C62.0044 22.5817 62.5049 22.7487 62.9156 23.0585C63.3546 23.4071 63.5921 23.9508 63.5495 24.5098C63.5522 24.8596 63.4788 25.2057 63.3341 25.5237C63.1942 25.8307 62.9987 26.1089 62.7573 26.3444C62.5146 26.5767 62.2325 26.7633 61.9238 26.8958C61.6035 27.0334 61.2584 27.1025 60.9099 27.0986L60.9163 27.0988ZM59.0689 42.2427H55.2663L58.4794 28.7434H62.3041L59.0689 42.2427Z" fill="white"/>
<path id="Vector_7" d="M65.6317 25.3816L69.6084 24.767L68.6198 28.7438H72.879L72.1117 31.8746H67.8877L66.7597 36.5834C66.662 36.9438 66.6016 37.3135 66.579 37.6865C66.5558 37.9881 66.6004 38.2911 66.7088 38.5734C66.8149 38.8266 67.0114 39.0312 67.2603 39.1469C67.6185 39.3053 68.0096 39.3773 68.401 39.3561C68.8021 39.3575 69.2023 39.3181 69.5956 39.2389C69.9915 39.1615 70.3814 39.0556 70.7617 38.9219L71.0469 41.8498C70.501 42.0461 69.9431 42.2082 69.3769 42.3347C68.6771 42.4832 67.9628 42.5523 67.2475 42.5407C66.0655 42.5407 65.1529 42.3632 64.5001 42.0145C63.8896 41.704 63.4004 41.1976 63.1123 40.5759C62.8309 39.9162 62.7082 39.1998 62.7543 38.4844C62.7969 37.645 62.9168 36.8113 63.1123 35.9936L65.6315 25.3688L65.6317 25.3816Z" fill="white"/>
<path id="Vector_8" d="M72.7387 36.8514C72.7307 35.7316 72.9214 34.6187 73.3027 33.5655C73.6602 32.5697 74.2094 31.6536 74.9187 30.869C75.6339 30.0908 76.5037 29.4713 77.4726 29.0497C78.5294 28.5934 79.6708 28.3655 80.8219 28.3815C81.5169 28.3733 82.2105 28.4465 82.8881 28.5998C83.4577 28.7348 84.012 28.9281 84.5422 29.1765L83.2209 32.1458C82.8787 32.0064 82.5237 31.8863 82.1562 31.775C81.7179 31.6529 81.264 31.5964 80.8094 31.6071C79.6604 31.5656 78.5552 32.0513 77.8085 32.9254C77.067 33.7976 76.6948 34.9701 76.693 36.4427C76.6581 37.1898 76.8552 37.929 77.2571 38.5598C77.6328 39.0984 78.3262 39.3674 79.3357 39.3674C79.8196 39.3679 80.302 39.3159 80.7744 39.2123C81.1959 39.1224 81.6088 38.9942 82.0072 38.8288L82.2892 41.8838C81.7708 42.0799 81.2419 42.2472 80.7048 42.3841C80.023 42.5379 79.3252 42.6104 78.6262 42.5999C77.6983 42.6269 76.7747 42.4706 75.9073 42.1402C75.2178 41.8623 74.597 41.4375 74.0884 40.8952C73.606 40.3696 73.2493 39.7407 73.046 39.0569C72.8309 38.3374 72.7241 37.5897 72.7291 36.8389L72.7387 36.8514Z" fill="white"/>
<path id="Vector_9" d="M91.5002 31.6208C90.9641 31.6133 90.44 31.7838 90.0109 32.1056C89.5758 32.4424 89.2108 32.8615 88.9367 33.3384C88.6353 33.846 88.409 34.3949 88.2651 34.9676C88.1256 35.5166 88.0531 36.08 88.0496 36.6466C88.0154 37.3381 88.1562 38.0267 88.4586 38.6493C88.7344 39.1277 89.2285 39.3687 89.9478 39.3687C90.4849 39.3778 91.0097 39.2059 91.4372 38.8806C91.8732 38.5439 92.239 38.1248 92.5146 37.6484C92.8116 37.1401 93.0326 36.5914 93.1708 36.0192C93.3086 35.4691 93.3811 34.9042 93.386 34.3366C93.4215 33.6455 93.2802 32.9562 92.977 32.3339C92.7015 31.8586 92.2038 31.6177 91.4877 31.6177L91.5002 31.6208ZM89.5991 42.6039C88.7916 42.6226 87.9888 42.4825 87.2351 42.1918C86.6011 41.9418 86.0348 41.5471 85.5811 41.0383C85.1348 40.5259 84.7987 39.9274 84.5924 39.2797C84.3684 38.5535 84.2612 37.796 84.2755 37.0363C84.2781 35.9899 84.4458 34.9503 84.7735 33.9562C85.0913 32.9558 85.5874 32.021 86.237 31.1963C86.8895 30.3717 87.7011 29.6864 88.623 29.181C89.6155 28.6473 90.7284 28.3776 91.8553 28.3982C92.6579 28.3836 93.4564 28.5236 94.2066 28.8102C94.8413 29.0561 95.4108 29.4456 95.8701 29.9478C96.3136 30.4616 96.649 31.0598 96.8557 31.7064C97.0813 32.4333 97.1883 33.1919 97.1725 33.953C97.1694 34.9984 97.0058 36.0374 96.6877 37.0331C96.3754 38.0349 95.8883 38.9733 95.249 39.8058C94.6061 40.6337 93.7977 41.3192 92.8756 41.8181C91.8678 42.3545 90.7405 42.6251 89.5991 42.6039Z" fill="white"/>
<path id="Vector_10" d="M103.177 27.0987C102.66 27.1042 102.156 26.9381 101.743 26.6267C101.302 26.2788 101.064 25.7346 101.108 25.1754C101.107 24.8266 101.181 24.4814 101.327 24.1645C101.463 23.8574 101.653 23.5783 101.891 23.3406C102.135 23.1099 102.418 22.9233 102.728 22.7892C103.046 22.6518 103.39 22.5818 103.738 22.5831C104.257 22.5786 104.763 22.7461 105.177 23.0584C105.617 23.407 105.853 23.9507 105.812 24.5096C105.812 24.8599 105.736 25.206 105.589 25.5236C105.451 25.8309 105.256 26.1095 105.015 26.3442C104.772 26.5765 104.49 26.7631 104.182 26.8957C103.864 27.0319 103.522 27.1012 103.177 27.0987ZM101.334 42.2426H97.5309L100.738 28.7433H104.565L101.334 42.2426Z" fill="white"/>
<path id="Vector_11" d="M107.303 29.3583C107.591 29.2759 107.912 29.1744 108.254 29.0637C108.596 28.9528 108.996 28.8513 109.435 28.7468C109.918 28.6443 110.406 28.5672 110.896 28.5155C111.506 28.4511 112.119 28.4203 112.732 28.4235C114.734 28.4235 116.116 29.0054 116.876 30.1695C117.332 30.8668 117.562 31.7174 117.568 32.7214V32.7938C117.564 33.4467 117.466 34.1638 117.276 34.9448L115.529 42.2329H111.714L113.41 35.0965C113.511 34.6532 113.593 34.2223 113.653 33.8009C113.719 33.4361 113.719 33.0626 113.653 32.6982C113.59 32.3936 113.422 32.1212 113.178 31.9282C112.84 31.7064 112.438 31.6028 112.035 31.6334C111.526 31.6344 111.02 31.6863 110.523 31.7888L108.032 42.2456H104.194L107.303 29.3583Z" fill="white"/>
</g>
<defs>
<clipPath id="clip0_1_2811">
<rect width="137.73" height="64.8141" fill="white" transform="scale(1.00196)"/>
</clipPath>
</defs>
</svg>
