<svg width="92" height="23" viewBox="0 0 92 23" fill="none" xmlns="http://www.w3.org/2000/svg">
<g id="Group">
<path id="Vector" d="M34.401 5.01398H29.3099C29.1414 5.01387 28.9783 5.07382 28.8502 5.18303C28.722 5.29224 28.6371 5.44358 28.6109 5.60969L26.5518 18.6357C26.5423 18.6962 26.5461 18.758 26.5629 18.8168C26.5796 18.8756 26.609 18.9302 26.6489 18.9766C26.6888 19.0231 26.7383 19.0604 26.794 19.0859C26.8497 19.1113 26.9104 19.1246 26.9716 19.1245H29.4022C29.5709 19.1246 29.734 19.0644 29.8622 18.9551C29.9903 18.8457 30.0751 18.6943 30.1012 18.5281L30.6565 15.0147C30.6826 14.8486 30.7673 14.6972 30.8953 14.5878C31.0233 14.4785 31.1863 14.4183 31.3548 14.4182H32.9665C36.3201 14.4182 38.2556 12.799 38.7611 9.59025C38.9889 8.18642 38.7707 7.08334 38.1119 6.31084C37.3884 5.46262 36.105 5.01398 34.401 5.01398ZM34.9883 9.77142C34.7099 11.5942 33.3141 11.5942 31.9645 11.5942H31.1963L31.7352 8.19008C31.751 8.09054 31.8019 7.99976 31.8787 7.93431C31.9555 7.86877 32.0532 7.83284 32.1543 7.83284H32.5065C33.4258 7.83284 34.2931 7.83284 34.7412 8.35578C35.0084 8.66773 35.0903 9.13123 34.9883 9.77142ZM49.6192 9.7128H47.1812C47.0802 9.7128 46.9825 9.74872 46.9056 9.81427C46.8288 9.87971 46.7779 9.9705 46.7621 10.07L46.6542 10.7504L46.4837 10.5038C45.9559 9.73956 44.7789 9.484 43.6043 9.484C40.9102 9.484 38.6092 11.52 38.1611 14.3759C37.928 15.8006 38.2593 17.1628 39.0693 18.1128C39.8121 18.9863 40.8752 19.3502 42.14 19.3502C44.3108 19.3502 45.5145 17.9576 45.5145 17.9576L45.4058 18.6335C45.3961 18.694 45.3997 18.7557 45.4162 18.8147C45.4328 18.8736 45.462 18.9282 45.5017 18.9749C45.5415 19.0214 45.5909 19.0588 45.6465 19.0846C45.7022 19.1102 45.7628 19.1237 45.8241 19.1238H48.0202C48.1888 19.1238 48.352 19.0637 48.4801 18.9544C48.6083 18.845 48.6931 18.6935 48.7192 18.5272L50.0368 10.2015C50.0465 10.1412 50.0429 10.0795 50.0265 10.0208C50.01 9.96195 49.9808 9.9074 49.9411 9.86098C49.9014 9.81447 49.852 9.77712 49.7964 9.75157C49.7409 9.72603 49.6804 9.7128 49.6192 9.7128ZM46.2209 14.4472C45.9856 15.8369 44.8802 16.7698 43.4703 16.7698C42.7623 16.7698 42.1966 16.5434 41.8333 16.114C41.473 15.6876 41.336 15.0808 41.4507 14.4049C41.6702 13.027 42.7944 12.0637 44.1827 12.0637C44.875 12.0637 45.4378 12.2932 45.8085 12.7263C46.1799 13.1637 46.3274 13.7743 46.2209 14.4472ZM62.6035 9.7128H60.1535C60.038 9.713 59.9242 9.74129 59.8221 9.79524C59.7201 9.84918 59.6327 9.92724 59.5677 10.0225L56.1887 14.9887L54.7564 10.2164C54.7125 10.0709 54.6228 9.94322 54.5004 9.85254C54.3782 9.76185 54.2299 9.7129 54.0776 9.7128H51.6701C51.6025 9.71259 51.5358 9.72857 51.4757 9.75921C51.4155 9.78994 51.3636 9.83452 51.3242 9.88938C51.2848 9.94414 51.2591 10.0075 51.2492 10.0742C51.2394 10.1409 51.2456 10.209 51.2673 10.2728L53.9659 18.1745L51.4289 21.7479C51.3838 21.8113 51.3571 21.8858 51.3516 21.9633C51.3461 22.0408 51.3621 22.1184 51.3979 22.1874C51.4336 22.2564 51.4877 22.3143 51.5543 22.3547C51.6208 22.3951 51.6972 22.4165 51.775 22.4164H54.222C54.3362 22.4166 54.4487 22.3891 54.55 22.3363C54.6513 22.2835 54.7382 22.2071 54.8033 22.1134L62.9519 10.3775C62.9959 10.3141 63.0219 10.2397 63.0267 10.1626C63.0315 10.0854 63.0152 10.0085 62.9792 9.93997C62.9433 9.87147 62.8894 9.81407 62.8231 9.77407C62.7568 9.73397 62.6809 9.7128 62.6035 9.7128Z" fill="white"/>
<path id="Vector_2" d="M70.714 5.01346H65.6222C65.4537 5.01356 65.2909 5.07361 65.1628 5.18282C65.0349 5.29203 64.9501 5.44317 64.9239 5.60917L62.8648 18.6352C62.8552 18.6956 62.8589 18.7573 62.8756 18.8161C62.8921 18.8748 62.9214 18.9294 62.961 18.9758C63.0008 19.0223 63.0502 19.0595 63.1059 19.0852C63.1615 19.1107 63.2219 19.124 63.2832 19.124H65.8961C66.014 19.1238 66.1279 19.0816 66.2175 19.0051C66.3069 18.9287 66.3662 18.8227 66.3845 18.7066L66.9688 15.0142C66.9948 14.848 67.0795 14.6967 67.2076 14.5874C67.3356 14.478 67.4985 14.4178 67.6671 14.4177H69.278C72.6324 14.4177 74.5671 12.7985 75.0733 9.58974C75.3018 8.1859 75.0823 7.08283 74.4235 6.31033C73.7006 5.4621 72.418 5.01346 70.714 5.01346ZM71.3013 9.77091C71.0237 11.5938 69.6279 11.5938 68.2775 11.5938H67.5101L68.0497 8.18957C68.0652 8.09003 68.1158 7.99924 68.1926 7.9337C68.2693 7.86815 68.367 7.83222 68.4681 7.83232H68.8201C69.7388 7.83232 70.6068 7.83232 71.0549 8.35526C71.3222 8.66722 71.4033 9.13072 71.3013 9.77091ZM85.9312 9.71228H83.4946C83.3938 9.71198 83.2961 9.7479 83.2198 9.81345C83.1425 9.87899 83.0916 9.96988 83.0763 10.0695L82.9684 10.7499L82.7974 10.5033C82.2692 9.73905 81.0936 9.48348 79.9191 9.48348C77.2247 9.48348 74.9244 11.5195 74.4763 14.3754C74.244 15.8001 74.5738 17.1623 75.3838 18.1123C76.1282 18.9859 77.1897 19.3497 78.4545 19.3497C80.6255 19.3497 81.8285 17.9571 81.8285 17.9571L81.7206 18.633C81.7104 18.6935 81.7145 18.7555 81.7308 18.8146C81.7471 18.8736 81.7766 18.9282 81.8163 18.9749C81.857 19.0215 81.9058 19.0589 81.9618 19.0846C82.0178 19.1101 82.0789 19.1234 82.1399 19.1233H84.3353C84.5043 19.1232 84.6671 19.063 84.7953 18.9536C84.9226 18.8443 85.0081 18.6929 85.0335 18.5267L86.3526 10.201C86.3617 10.1406 86.3576 10.0788 86.3403 10.0199C86.3241 9.96103 86.2945 9.90658 86.2548 9.86006C86.2141 9.81365 86.1653 9.7764 86.1093 9.75085C86.0533 9.72541 85.9933 9.71218 85.9312 9.71228ZM82.5328 14.4467C82.2997 15.8364 81.1924 16.7694 79.7827 16.7694C79.0764 16.7694 78.5089 16.5429 78.1455 16.1135C77.7852 15.6871 77.6498 15.0803 77.7629 14.4044C77.984 13.0265 79.1069 12.0632 80.4952 12.0632C81.1873 12.0632 81.7501 12.2927 82.1206 12.7257C82.4941 13.1632 82.6407 13.7738 82.5328 14.4467ZM88.8054 5.37081L86.7159 18.6352C86.7067 18.6956 86.7098 18.7573 86.7271 18.8161C86.7434 18.8748 86.7729 18.9294 86.8126 18.9758C86.8523 19.0223 86.9011 19.0595 86.9571 19.0852C87.0131 19.1107 87.0731 19.124 87.1342 19.124H89.2349C89.584 19.124 89.8802 18.8715 89.9341 18.5275L91.9952 5.5022C92.0043 5.44185 92.0003 5.38017 91.984 5.32134C91.9677 5.26241 91.9382 5.20796 91.8985 5.16145C91.8588 5.11494 91.8089 5.07748 91.754 5.05183C91.698 5.02618 91.6379 5.01285 91.5769 5.01275H89.2237C89.123 5.01305 89.0253 5.04929 88.9489 5.11493C88.8726 5.18058 88.8217 5.27127 88.8054 5.37081Z" fill="white"/>
<path id="Vector_3" d="M5.40919 21.6553L5.7985 19.1878L4.93124 19.1677H0.790066L3.66796 0.960096C3.67651 0.904524 3.70481 0.853838 3.74776 0.817299C3.79071 0.780761 3.84526 0.760811 3.90175 0.761117H10.8844C13.2025 0.761117 14.8023 1.24243 15.6375 2.19243C16.0291 2.63802 16.2784 3.10376 16.3991 3.61632C16.5256 4.15401 16.5278 4.79654 16.4042 5.58014L16.3954 5.63734V6.13951L16.7869 6.36088C17.0859 6.51192 17.3546 6.7164 17.5797 6.96402C17.9147 7.34498 18.1313 7.82935 18.2229 8.40348C18.3175 8.994 18.2861 9.69668 18.1313 10.4922C17.9527 11.4073 17.6639 12.2042 17.2737 12.8564C16.9296 13.4406 16.4668 13.9467 15.9152 14.342C15.397 14.7089 14.7814 14.9874 14.0854 15.1657C13.4109 15.3409 12.642 15.4294 11.7986 15.4294H11.2552C10.8666 15.4294 10.4891 15.569 10.1928 15.8193C9.89692 16.0723 9.70069 16.4218 9.63902 16.8057L9.598 17.0278L8.91018 21.3767L8.87893 21.5364C8.87069 21.587 8.85654 21.6122 8.83578 21.6293C8.81552 21.6458 8.79039 21.655 8.76423 21.6553H5.40919Z" fill="#253B80"/>
<path id="Vector_4" d="M17.1578 5.69535C17.137 5.82827 17.1131 5.96414 17.0864 6.10378C16.1655 10.8211 13.0151 12.4508 8.99151 12.4508H6.9429C6.4508 12.4508 6.03616 12.8073 5.95952 13.2916L4.91058 19.9291L4.61359 21.8105C4.60179 21.8852 4.60627 21.9614 4.62683 22.0342C4.64738 22.1069 4.68352 22.1743 4.73268 22.2317C4.78183 22.2893 4.8429 22.3354 4.9116 22.367C4.98041 22.3987 5.05521 22.415 5.13094 22.4152H8.76444C9.19476 22.4152 9.56024 22.1032 9.62803 21.6798L9.66375 21.4956L10.3478 17.1637L10.3918 16.926C10.4587 16.5012 10.825 16.1892 11.2553 16.1892H11.7988C15.3191 16.1892 18.075 14.7631 18.8804 10.6362C19.2169 8.91227 19.0427 7.47271 18.1524 6.46031C17.8702 6.14714 17.5332 5.88791 17.1578 5.69535Z" fill="white"/>
<path id="Vector_5" d="M16.1943 5.31187C15.9004 5.22698 15.6013 5.16073 15.2989 5.1136C14.7013 5.0219 14.0974 4.97793 13.4929 4.9821H8.01987C7.81163 4.9819 7.6101 5.0561 7.45184 5.19126C7.29367 5.32642 7.18905 5.51359 7.15709 5.71888L5.99284 13.0769L5.95936 13.2915C5.99559 13.0572 6.11467 12.8437 6.29502 12.6895C6.47547 12.5353 6.70519 12.4505 6.94274 12.4506H8.99134C13.015 12.4506 16.1653 10.8203 17.0862 6.1037C17.1137 5.96406 17.1368 5.82809 17.1577 5.69517C16.9147 5.56804 16.6614 5.46138 16.4005 5.3765C16.3322 5.3539 16.2634 5.33232 16.1943 5.31187Z" fill="#999999"/>
<path id="Vector_6" d="M7.15684 5.71864C7.18849 5.51325 7.29302 5.32598 7.45138 5.19092C7.60965 5.05586 7.81127 4.98197 8.01961 4.98258H13.4926C14.141 4.98258 14.7462 5.02492 15.2985 5.11408C15.6724 5.1727 16.0409 5.26033 16.401 5.37626C16.6727 5.46613 16.9252 5.57239 17.1581 5.69493C17.4321 3.95156 17.1559 2.76462 16.2112 1.68983C15.1698 0.506656 13.2901 0 10.8849 0H3.90216C3.41087 0 2.99174 0.356531 2.91582 0.841609L0.00738861 19.2364C-0.00614796 19.3218 -0.00105993 19.4091 0.022451 19.4924C0.0459619 19.5756 0.0872843 19.6528 0.143466 19.7185C0.19975 19.7843 0.269571 19.8372 0.348246 19.8734C0.426921 19.9097 0.512516 19.9286 0.599231 19.9287H4.91017L5.99249 13.0765L7.15684 5.71864Z" fill="#E6E6E6"/>
</g>
</svg>
