<svg width="78" height="20" viewBox="0 0 78 20" fill="none" xmlns="http://www.w3.org/2000/svg">
<g id="Group" filter="url(#filter0_d_1_2827)">
<path id="Vector" d="M13.3508 11.6293L12.3276 8.83568H7.08144L6.05819 11.6293H4.06041L8.55135 0H10.9308L15.4299 11.6293H13.3508ZM7.66616 7.22772H11.7429L9.70453 1.65669L7.66616 7.22772ZM20.9437 3.32962C22.8197 3.32962 23.7211 4.49905 23.7211 6.20447V11.6293H21.8452V6.4887C21.8452 5.4817 21.4472 4.84013 20.2859 4.84013C18.9216 4.84013 18.2882 5.76593 18.2882 6.9516V11.6293H16.4122V3.50829H18.2313V4.82389C18.7348 3.93058 19.62 3.32962 20.9437 3.32962ZM31.1364 0H33.0124V11.6293H31.2177V10.1675C30.7304 11.1583 29.8452 11.808 28.5215 11.808C26.3856 11.808 25.1512 10.135 25.1512 7.63377V7.55256C25.1512 5.0188 26.4019 3.32962 28.6027 3.32962C29.7396 3.32962 30.6005 3.80064 31.1364 4.58026V0ZM31.1608 7.58504V7.48759C31.1608 5.86338 30.4462 4.75892 29.0493 4.75892C27.6363 4.75892 27.0597 5.86338 27.0597 7.5282V7.58504C27.0597 9.24985 27.6363 10.3543 29.0493 10.3543C30.4462 10.3543 31.1608 9.24985 31.1608 7.58504ZM47.4932 3.32962C49.2068 3.32962 50.1488 4.38535 50.1488 6.09889V11.6293H48.2728V6.39125C48.2728 5.44921 47.9155 4.84013 46.9085 4.84013C45.7147 4.84013 45.1787 5.70096 45.1787 6.81355V11.6293H43.3028V6.39125C43.3028 5.44921 42.9454 4.84013 41.9547 4.84013C40.769 4.84013 40.2087 5.74969 40.2087 6.90288V11.6293H38.3327V3.50829H40.1437V4.81577C40.6066 3.92246 41.4106 3.32962 42.6125 3.32962C43.79 3.32962 44.5615 3.87373 44.927 4.76704C45.398 3.88997 46.2426 3.32962 47.4932 3.32962ZM55.5393 11.808C53.0462 11.808 51.56 10.1757 51.56 7.60941V7.5282C51.56 4.96195 53.0462 3.32962 55.5393 3.32962C58.0325 3.32962 59.5186 4.96195 59.5186 7.5282V7.60941C59.5186 10.1757 58.0325 11.808 55.5393 11.808ZM55.5393 10.3381C57.0255 10.3381 57.6102 9.21737 57.6102 7.58504V7.55256C57.6102 5.92023 57.0255 4.79953 55.5393 4.79953C54.0532 4.79953 53.4685 5.92023 53.4685 7.55256V7.58504C53.4685 9.21737 54.0532 10.3381 55.5393 10.3381ZM65.0196 3.49204H65.6287V5.10813H64.8328C63.4198 5.10813 62.827 6.09077 62.827 7.3739V11.6293H60.951V3.50829H62.762V5.0594C63.1193 4.07676 63.8908 3.49204 65.0196 3.49204ZM73.9396 7.39014V7.89364H68.0684C68.0765 9.40415 68.6125 10.4355 70.1636 10.4355C71.4467 10.4355 71.9905 9.71275 72.1042 8.78696H73.9071C73.769 10.6223 72.4534 11.808 70.131 11.808C67.5405 11.808 66.1843 10.2244 66.1843 7.59316V7.54444C66.1843 4.89698 67.5811 3.32962 70.1149 3.32962C72.5184 3.32962 73.9396 4.81577 73.9396 7.39014ZM70.0986 4.66147C68.7911 4.66147 68.2064 5.42485 68.0927 6.65925H72.0636C71.958 5.40861 71.3899 4.66147 70.0986 4.66147Z" fill="white"/>
</g>
<defs>
<filter id="filter0_d_1_2827" x="-0.00010133" y="0" width="78.0002" height="19.9291" filterUnits="userSpaceOnUse" color-interpolation-filters="sRGB">
<feFlood flood-opacity="0" result="BackgroundImageFix"/>
<feColorMatrix in="SourceAlpha" type="matrix" values="0 0 0 0 0 0 0 0 0 0 0 0 0 0 0 0 0 0 127 0" result="hardAlpha"/>
<feOffset dy="4.05088"/>
<feGaussianBlur stdDeviation="2.02544"/>
<feComposite in2="hardAlpha" operator="out"/>
<feColorMatrix type="matrix" values="0 0 0 0 0 0 0 0 0 0 0 0 0 0 0 0 0 0 0.25 0"/>
<feBlend mode="normal" in2="BackgroundImageFix" result="effect1_dropShadow_1_2827"/>
<feBlend mode="normal" in="SourceGraphic" in2="effect1_dropShadow_1_2827" result="shape"/>
</filter>
</defs>
</svg>
