<svg width="130" height="28" viewBox="0 0 130 28" fill="none" xmlns="http://www.w3.org/2000/svg">
<g id="Component 1" clip-path="url(#clip0_0_89)">
<path id="Vector" d="M26.2472 9.26569H17.3787V0.437988H8.87974C8.87974 5.31484 4.93813 9.26569 0.0727539 9.26569V17.7848H8.87974V26.6125H17.3787C17.3787 21.7357 21.3819 17.7848 26.2472 17.7848V9.26569Z" fill="#011624"/>
<path id="Vector_2" d="M42.8684 22.9499C41.6183 22.9499 40.4565 22.7208 39.3825 22.2625C38.3262 21.8042 37.4107 21.1697 36.636 20.3589C35.879 19.5304 35.3244 18.5698 34.9723 17.4771L37.9564 16.1816C38.4318 17.3096 39.1184 18.1997 40.0163 18.8519C40.9142 19.4864 41.9265 19.8037 43.0532 19.8037C43.687 19.8037 44.2327 19.7068 44.6905 19.5128C45.1659 19.3013 45.5268 19.0193 45.7733 18.6668C46.0373 18.3143 46.1694 17.8913 46.1694 17.3978C46.1694 16.8161 45.9933 16.3402 45.6412 15.97C45.3067 15.5823 44.7962 15.2827 44.1095 15.0711L40.3332 13.8549C38.8015 13.379 37.6484 12.6652 36.8737 11.7133C36.0991 10.7616 35.7117 9.64233 35.7117 8.35565C35.7117 7.22759 35.9846 6.23172 36.5304 5.36805C37.0938 4.50439 37.8684 3.8346 38.8543 3.35869C39.8578 2.86517 41.0022 2.61841 42.2874 2.61841C43.467 2.61841 44.5497 2.82992 45.5356 3.25294C46.5215 3.65834 47.3665 4.23118 48.0708 4.97147C48.7926 5.69413 49.3295 6.54899 49.6817 7.53604L46.7239 8.85797C46.3366 7.87093 45.7557 7.11301 44.981 6.58424C44.2064 6.03784 43.3085 5.76464 42.2874 5.76464C41.6888 5.76464 41.1606 5.87039 40.7029 6.0819C40.2451 6.27579 39.8843 6.5578 39.6202 6.92794C39.3737 7.28046 39.2504 7.70349 39.2504 8.19701C39.2504 8.74341 39.4265 9.22817 39.7786 9.65115C40.1308 10.0566 40.6677 10.3738 41.3895 10.6029L45.0074 11.7398C46.5743 12.251 47.7451 12.956 48.5197 13.8549C49.312 14.7539 49.7081 15.8643 49.7081 17.1863C49.7081 18.3143 49.4176 19.3101 48.8366 20.1738C48.2556 21.0375 47.4546 21.7161 46.4335 22.2096C45.4123 22.7031 44.224 22.9499 42.8684 22.9499Z" fill="#011624"/>
<path id="Vector_3" d="M51.5953 27.9202V8.24964H54.8436V11.1051L54.5267 10.3912C55.0197 9.61565 55.6886 9.01634 56.5337 8.59334C57.3788 8.15269 58.3559 7.93237 59.465 7.93237C60.8206 7.93237 62.0442 8.26727 63.1358 8.93703C64.2272 9.60683 65.0899 10.5058 65.7237 11.6338C66.3751 12.7619 66.7008 14.0309 66.7008 15.441C66.7008 16.8334 66.3839 18.1026 65.7502 19.2482C65.1163 20.3939 64.2537 21.3016 63.1621 21.9714C62.0706 22.6236 60.8294 22.9496 59.4386 22.9496C58.3998 22.9496 57.4404 22.747 56.5601 22.3416C55.6974 21.9185 55.0108 21.3192 54.5003 20.5438L55.0548 19.8563V27.9202H51.5953ZM59.0425 19.777C59.8347 19.777 60.5389 19.5919 61.1551 19.2218C61.7713 18.8517 62.2467 18.3405 62.5811 17.6883C62.9333 17.0362 63.1093 16.2871 63.1093 15.441C63.1093 14.595 62.9333 13.8547 62.5811 13.2201C62.2467 12.568 61.7713 12.0569 61.1551 11.6867C60.5389 11.2989 59.8347 11.1051 59.0425 11.1051C58.2854 11.1051 57.5988 11.2901 56.9827 11.6602C56.384 12.0304 55.9087 12.5503 55.5566 13.2201C55.2221 13.8723 55.0548 14.6126 55.0548 15.441C55.0548 16.2871 55.2221 17.0362 55.5566 17.6883C55.9087 18.3405 56.384 18.8517 56.9827 19.2218C57.5988 19.5919 58.2854 19.777 59.0425 19.777Z" fill="#011624"/>
<path id="Vector_4" d="M75.0952 22.9496C73.6164 22.9496 72.3224 22.6148 71.2132 21.945C70.1041 21.2752 69.2414 20.3674 68.6252 19.2218C68.009 18.0761 67.7009 16.807 67.7009 15.4146C67.7009 13.9693 68.009 12.6914 68.6252 11.5809C69.259 10.4529 70.1129 9.56277 71.1868 8.91059C72.2783 8.25845 73.4931 7.93237 74.8311 7.93237C75.9578 7.93237 76.9437 8.11744 77.7888 8.48759C78.6515 8.85772 79.3822 9.36891 79.9807 10.021C80.5793 10.6732 81.0371 11.4223 81.354 12.2683C81.6709 13.0968 81.8293 13.9957 81.8293 14.9651C81.8293 15.2118 81.8117 15.4675 81.7764 15.7318C81.7589 15.9962 81.7148 16.2254 81.6444 16.4193H70.553V13.7754H79.6902L78.0529 15.018C78.2114 14.2072 78.1673 13.4845 77.9208 12.85C77.692 12.2155 77.3047 11.7131 76.759 11.343C76.2308 10.9729 75.5882 10.7877 74.8311 10.7877C74.1093 10.7877 73.4667 10.9729 72.9034 11.343C72.34 11.6955 71.9087 12.2243 71.6093 12.9293C71.3277 13.6168 71.222 14.454 71.2924 15.441C71.222 16.3223 71.3365 17.1067 71.6357 17.794C71.9526 18.4638 72.4104 18.9838 73.0089 19.354C73.6252 19.7241 74.3294 19.9092 75.1217 19.9092C75.9139 19.9092 76.5829 19.7418 77.1286 19.4068C77.692 19.072 78.1322 18.6225 78.449 18.0585L81.2483 19.4333C80.9666 20.1207 80.5265 20.7288 79.9279 21.2575C79.3293 21.7864 78.6163 22.2005 77.7888 22.5002C76.979 22.7998 76.0811 22.9496 75.0952 22.9496Z" fill="#011624"/>
<path id="Vector_5" d="M90.3141 22.9496C88.8885 22.9496 87.6033 22.6236 86.4587 21.9714C85.3319 21.3016 84.4428 20.4027 83.7914 19.2746C83.14 18.129 82.8143 16.8422 82.8143 15.4146C82.8143 13.9869 83.14 12.709 83.7914 11.5809C84.4428 10.4529 85.3319 9.56277 86.4587 8.91059C87.6033 8.25845 88.8885 7.93237 90.3141 7.93237C91.3358 7.93237 92.2859 8.11744 93.1663 8.48759C94.0466 8.8401 94.8039 9.33366 95.4373 9.96813C96.0891 10.5851 96.555 11.3254 96.8368 12.189L93.8006 13.5109C93.5362 12.7883 93.0869 12.2067 92.4534 11.766C91.8375 11.3254 91.1238 11.1051 90.3141 11.1051C89.5568 11.1051 88.8797 11.2901 88.2812 11.6602C87.7001 12.0304 87.2421 12.5415 86.9076 13.1937C86.5731 13.8459 86.4058 14.595 86.4058 15.441C86.4058 16.2871 86.5731 17.0362 86.9076 17.6883C87.2421 18.3405 87.7001 18.8517 88.2812 19.2218C88.8797 19.5919 89.5568 19.777 90.3141 19.777C91.1421 19.777 91.8636 19.5566 92.4796 19.116C93.0956 18.6753 93.5362 18.0849 93.8006 17.3446L96.8368 18.7194C96.555 19.5302 96.0978 20.2617 95.4635 20.9139C94.8301 21.5484 94.0728 22.0507 93.1924 22.4209C92.3121 22.7734 91.3532 22.9496 90.3141 22.9496Z" fill="#011624"/>
<path id="Vector_6" d="M104.955 22.792C103.335 22.792 102.076 22.3514 101.178 21.4701C100.298 20.5711 99.8583 19.3108 99.8583 17.6892V11.3439H97.3761V8.25059H97.6396C98.3446 8.25059 98.8899 8.06551 99.2772 7.69537C99.6646 7.32523 99.8583 6.78764 99.8583 6.0826V4.97217H103.318V8.25059H106.618V11.3439H103.318V17.5042C103.318 17.9801 103.397 18.3855 103.555 18.7203C103.731 19.0553 103.996 19.3108 104.347 19.4871C104.717 19.6634 105.184 19.7515 105.748 19.7515C105.871 19.7515 106.011 19.7427 106.17 19.7251C106.346 19.7075 106.513 19.6899 106.672 19.6722V22.6333C106.425 22.6686 106.144 22.7038 105.826 22.7391C105.509 22.7743 105.219 22.792 104.955 22.792Z" fill="#011624"/>
<path id="Vector_7" d="M108.259 22.6327V8.24994H111.507V11.449L111.242 10.9732C111.577 9.89793 112.097 9.14882 112.801 8.72584C113.522 8.30282 114.385 8.09131 115.388 8.09131H116.234V11.1582H114.992C114.006 11.1582 113.214 11.4667 112.616 12.0836C112.017 12.6829 111.718 13.5289 111.718 14.6217V22.6327H108.259Z" fill="#011624"/>
<path id="Vector_8" d="M121.437 22.9496C120.433 22.9496 119.562 22.7822 118.822 22.4473C118.083 22.1124 117.51 21.6365 117.106 21.0196C116.701 20.3851 116.498 19.6537 116.498 18.8252C116.498 18.0321 116.675 17.327 117.026 16.7101C117.379 16.0755 117.924 15.5468 118.664 15.1237C119.403 14.7007 120.336 14.401 121.463 14.2248L126.164 13.4581V16.1019L122.123 16.7894C121.437 16.9127 120.926 17.1331 120.591 17.4504C120.257 17.7676 120.09 18.1819 120.09 18.693C120.09 19.1865 120.275 19.5831 120.644 19.8828C121.032 20.1648 121.507 20.3057 122.07 20.3057C122.793 20.3057 123.426 20.1559 123.972 19.8563C124.535 19.539 124.967 19.1072 125.266 18.5608C125.583 18.0144 125.742 17.4151 125.742 16.7629V13.0615C125.742 12.4446 125.495 11.9335 125.002 11.528C124.526 11.1051 123.893 10.8935 123.1 10.8935C122.361 10.8935 121.701 11.0963 121.12 11.5016C120.556 11.8894 120.143 12.4093 119.878 13.0615L117.053 11.6867C117.334 10.9288 117.775 10.2766 118.373 9.7302C118.989 9.16614 119.712 8.72554 120.539 8.40827C121.366 8.09101 122.264 7.93237 123.232 7.93237C124.412 7.93237 125.451 8.15269 126.349 8.59334C127.247 9.01634 127.942 9.61565 128.435 10.3912C128.945 11.1491 129.201 12.0392 129.201 13.0615V22.6324H125.926V20.1736L126.665 20.1207C126.296 20.7376 125.856 21.2575 125.345 21.6806C124.834 22.086 124.254 22.4033 123.602 22.6324C122.95 22.8439 122.229 22.9496 121.437 22.9496Z" fill="#011624"/>
</g>
<defs>
<clipPath id="clip0_0_89">
<rect width="130" height="27.9195" fill="white"/>
</clipPath>
</defs>
</svg>
