<svg width="24" height="24" viewBox="0 0 24 24" fill="none" xmlns="http://www.w3.org/2000/svg">
<g id="Group">
<path id="Vector" d="M11.9999 0C15.2603 0 15.6671 0.0119998 16.9463 0.0719994C18.2243 0.131999 19.0943 0.332398 19.8599 0.629996C20.6519 0.934794 21.3191 1.34759 21.9862 2.01359C22.5964 2.61346 23.0686 3.33908 23.3698 4.13997C23.6662 4.90437 23.8678 5.77556 23.9278 7.05355C23.9842 8.33274 23.9998 8.73954 23.9998 11.9999C23.9998 15.2603 23.9878 15.6671 23.9278 16.9463C23.8678 18.2243 23.6662 19.0943 23.3698 19.8599C23.0695 20.6612 22.5972 21.387 21.9862 21.9862C21.3863 22.5962 20.6606 23.0684 19.8599 23.3698C19.0955 23.6662 18.2243 23.8678 16.9463 23.9278C15.6671 23.9842 15.2603 23.9998 11.9999 23.9998C8.73954 23.9998 8.33274 23.9878 7.05355 23.9278C5.77556 23.8678 4.90557 23.6662 4.13997 23.3698C3.33877 23.0692 2.61302 22.5969 2.01359 21.9862C1.40328 21.3865 0.93111 20.6609 0.629996 19.8599C0.332398 19.0955 0.131999 18.2243 0.0719994 16.9463C0.0155998 15.6671 0 15.2603 0 11.9999C0 8.73954 0.0119998 8.33274 0.0719994 7.05355C0.131999 5.77436 0.332398 4.90557 0.629996 4.13997C0.930282 3.33859 1.40255 2.61277 2.01359 2.01359C2.61319 1.40307 3.33889 0.93087 4.13997 0.629996C4.90557 0.332398 5.77436 0.131999 7.05355 0.0719994C8.33274 0.0155998 8.73954 0 11.9999 0ZM11.9999 5.99996C10.4086 5.99996 8.88252 6.63209 7.75731 7.75731C6.63209 8.88252 5.99996 10.4086 5.99996 11.9999C5.99996 13.5912 6.63209 15.1174 7.75731 16.2425C8.88252 17.3677 10.4086 17.9999 11.9999 17.9999C13.5912 17.9999 15.1174 17.3677 16.2425 16.2425C17.3677 15.1174 17.9999 13.5912 17.9999 11.9999C17.9999 10.4086 17.3677 8.88252 16.2425 7.75731C15.1174 6.63209 13.5912 5.99996 11.9999 5.99996ZM19.7999 5.69996C19.7999 5.30214 19.6418 4.92061 19.3605 4.63931C19.0793 4.35801 18.6977 4.19997 18.2999 4.19997C17.9021 4.19997 17.5205 4.35801 17.2392 4.63931C16.9579 4.92061 16.7999 5.30214 16.7999 5.69996C16.7999 6.09778 16.9579 6.47931 17.2392 6.76061C17.5205 7.04191 17.9021 7.19995 18.2999 7.19995C18.6977 7.19995 19.0793 7.04191 19.3605 6.76061C19.6418 6.47931 19.7999 6.09778 19.7999 5.69996ZM11.9999 8.39994C12.9546 8.39994 13.8703 8.77922 14.5455 9.45435C15.2206 10.1295 15.5999 11.0452 15.5999 11.9999C15.5999 12.9546 15.2206 13.8703 14.5455 14.5455C13.8703 15.2206 12.9546 15.5999 11.9999 15.5999C11.0452 15.5999 10.1295 15.2206 9.45435 14.5455C8.77922 13.8703 8.39994 12.9546 8.39994 11.9999C8.39994 11.0452 8.77922 10.1295 9.45435 9.45435C10.1295 8.77922 11.0452 8.39994 11.9999 8.39994Z" fill="#011624"/>
</g>
</svg>
