<svg width="20" height="20" viewBox="0 0 20 20" fill="none" xmlns="http://www.w3.org/2000/svg">
<g id="Component 20">
<path id="Vector" fill-rule="evenodd" clip-rule="evenodd" d="M16.4593 11.2092C16.7359 10.9326 16.7359 10.4841 16.4593 10.2075C16.1827 9.93083 15.7342 9.93083 15.4575 10.2075L10.8336 14.8314V3.20833C10.8336 2.81713 10.5165 2.5 10.1252 2.5C9.73408 2.5 9.41691 2.81713 9.41691 3.20833V14.8318L4.79258 10.2075C4.516 9.93083 4.0675 9.93083 3.79091 10.2075C3.51425 10.4841 3.51425 10.9326 3.79091 11.2092L9.62425 17.0425C9.66525 17.0836 9.71083 17.1191 9.75966 17.1485C9.85916 17.2084 9.97258 17.2433 10.09 17.2492C10.1017 17.2497 10.1133 17.25 10.1251 17.25C10.3258 17.25 10.5072 17.1665 10.6362 17.0323L16.4593 11.2092Z" fill="#011624"/>
</g>
</svg>
