<svg width="110" height="41" viewBox="0 0 110 41" fill="none" xmlns="http://www.w3.org/2000/svg">
<g id="Component 1">
<path id="Vector" d="M6.78996 10.4289V30.4042H2.78345V10.4289H6.78996ZM18.1032 14.3209C19.9919 14.3209 21.5183 14.9219 22.682 16.1239C23.8459 17.3068 24.4277 18.9666 24.4277 21.1034V30.4042H20.4212V21.6471C20.4212 20.3879 20.1064 19.4245 19.4768 18.7567C18.8472 18.0699 17.9887 17.7265 16.9012 17.7265C15.7947 17.7265 14.9171 18.0699 14.2684 18.7567C13.6388 19.4245 13.324 20.3879 13.324 21.6471V30.4042H9.31747V14.5499H13.324V16.5245C13.8582 15.8377 14.5355 15.3035 15.3559 14.9219C16.1953 14.5213 17.1111 14.3209 18.1032 14.3209ZM35.5925 14.3209C37.4813 14.3209 39.0076 14.9219 40.1714 16.1239C41.3352 17.3068 41.9171 18.9666 41.9171 21.1034V30.4042H37.9106V21.6471C37.9106 20.3879 37.5958 19.4245 36.9662 18.7567C36.3366 18.0699 35.4781 17.7265 34.3906 17.7265C33.284 17.7265 32.4064 18.0699 31.7577 18.7567C31.1282 19.4245 30.8134 20.3879 30.8134 21.6471V30.4042H26.8069V14.5499H30.8134V16.5245C31.3475 15.8377 32.0248 15.3035 32.8452 14.9219C33.6846 14.5213 34.6004 14.3209 35.5925 14.3209ZM51.3361 30.6618C49.8099 30.6618 48.4362 30.3279 47.2152 29.6601C45.9942 28.9733 45.0307 28.0099 44.3248 26.7697C43.6379 25.5296 43.2945 24.0987 43.2945 22.477C43.2945 20.8554 43.6475 19.4245 44.3534 18.1844C45.0784 16.9442 46.061 15.9904 47.301 15.3226C48.5412 14.6357 49.9244 14.2923 51.4506 14.2923C52.9769 14.2923 54.3602 14.6357 55.6002 15.3226C56.8403 15.9904 57.8133 16.9442 58.5192 18.1844C59.2442 19.4245 59.6067 20.8554 59.6067 22.477C59.6067 24.0987 59.2347 25.5296 58.4906 26.7697C57.7657 28.0099 56.7735 28.9733 55.5144 29.6601C54.2743 30.3279 52.8815 30.6618 51.3361 30.6618ZM51.3361 27.1704C52.0612 27.1704 52.7384 26.9987 53.368 26.6553C54.0167 26.2928 54.5319 25.7585 54.9134 25.0527C55.295 24.3468 55.4857 23.4882 55.4857 22.477C55.4857 20.9699 55.0851 19.8156 54.2838 19.0143C53.5016 18.1939 52.5381 17.7837 51.3934 17.7837C50.2487 17.7837 49.2852 18.1939 48.503 19.0143C47.7399 19.8156 47.3582 20.9699 47.3582 22.477C47.3582 23.9842 47.7303 25.1481 48.4743 25.9684C49.2376 26.7697 50.1914 27.1704 51.3361 27.1704ZM67.7255 26.7125L71.732 14.5499H75.9961L70.1294 30.4042H65.2644L59.4263 14.5499H63.719L67.7255 26.7125ZM78.8473 12.6611C78.1414 12.6611 77.55 12.4417 77.073 12.0029C76.6151 11.545 76.3862 10.9822 76.3862 10.3144C76.3862 9.64666 76.6151 9.09344 77.073 8.6546C77.55 8.19672 78.1414 7.96777 78.8473 7.96777C79.5533 7.96777 80.1351 8.19672 80.593 8.6546C81.07 9.09344 81.3085 9.64666 81.3085 10.3144C81.3085 10.9822 81.07 11.545 80.593 12.0029C80.1351 12.4417 79.5533 12.6611 78.8473 12.6611ZM80.822 14.5499V30.4042H76.8155V14.5499H80.822Z" fill="#011624"/>
<path id="Vector_2" d="M98.5888 10.7314H93.2229C92.729 10.7314 92.3286 11.1318 92.3286 11.6258V16.9916C92.3286 17.4855 92.729 17.8859 93.2229 17.8859H98.5888C99.0827 17.8859 99.4831 17.4855 99.4831 16.9916V11.6258C99.4831 11.1318 99.0827 10.7314 98.5888 10.7314Z" fill="#011624"/>
<path id="Vector_3" d="M98.5888 23.252H93.2229C92.729 23.252 92.3286 23.6523 92.3286 24.1463V29.5121C92.3286 30.006 92.729 30.4064 93.2229 30.4064H98.5888C99.0827 30.4064 99.4831 30.006 99.4831 29.5121V24.1463C99.4831 23.6523 99.0827 23.252 98.5888 23.252Z" fill="#011624"/>
</g>
</svg>
