<svg width="155" height="30" viewBox="0 0 155 30" fill="none" xmlns="http://www.w3.org/2000/svg">
<g id="Component 1" clip-path="url(#clip0_0_160)">
<path id="Vector" d="M19.7336 23.2035L4.88191 4.27047C4.74964 4.10042 4.59848 3.93036 4.42843 3.7603C4.27726 3.59025 4.13555 3.44853 4.00328 3.33516V19.5473C4.00328 20.3597 4.24892 21.0589 4.7402 21.6446C5.23147 22.2304 5.88335 22.5233 6.69585 22.5233V22.8067H0.800537V22.5233C1.63192 22.5233 2.29326 22.2304 2.78454 21.6446C3.27581 21.0589 3.52145 20.3503 3.52145 19.5189V2.93836C2.67117 2.29593 1.77364 1.92747 0.82888 1.83299V1.54956H8.113L19.2517 15.9194V4.80899C19.2517 3.9965 19.0061 3.29738 18.5148 2.71162C18.0235 2.12587 17.3716 1.83299 16.5592 1.83299V1.54956H22.4261V1.83299C21.6137 1.83299 20.9618 2.12587 20.4705 2.71162C19.9792 3.29738 19.7336 3.9965 19.7336 4.80899V23.2035Z" fill="#011624"/>
<path id="Vector_2" d="M29.5173 23.2035C27.9679 23.2035 26.6074 22.8917 25.4359 22.2682C24.2833 21.6446 23.3857 20.766 22.7433 19.6323C22.1009 18.4986 21.7797 17.157 21.7797 15.6076C21.7797 14.0582 22.1009 12.7166 22.7433 11.5829C23.3857 10.4492 24.2833 9.57057 25.4359 8.94702C26.6074 8.32349 27.9679 8.01172 29.5173 8.01172C31.0666 8.01172 32.4177 8.32349 33.5703 8.94702C34.7229 9.57057 35.6205 10.4492 36.2629 11.5829C36.9053 12.7166 37.2265 14.0582 37.2265 15.6076C37.2265 17.157 36.9053 18.4986 36.2629 19.6323C35.6205 20.766 34.7229 21.6446 33.5703 22.2682C32.4177 22.8917 31.0666 23.2035 29.5173 23.2035ZM29.4889 22.835C30.1503 22.835 30.7171 22.5044 31.1895 21.843C31.6618 21.1817 32.0303 20.303 32.2949 19.2071C32.5594 18.0923 32.6917 16.883 32.6917 15.5793C32.6917 14.1621 32.5499 12.915 32.2665 11.838C32.002 10.7421 31.6241 9.89182 31.1328 9.28714C30.6605 8.6636 30.1219 8.35183 29.5173 8.35183C28.8749 8.35183 28.308 8.68251 27.8167 9.34382C27.3443 10.0052 26.9759 10.8838 26.7113 11.9797C26.4468 13.0756 26.3145 14.2755 26.3145 15.5793C26.3145 17.0153 26.4562 18.2813 26.7397 19.3772C27.0231 20.4731 27.401 21.3234 27.8734 21.9281C28.3647 22.5327 28.9032 22.835 29.4889 22.835Z" fill="#011624"/>
<path id="Vector_3" d="M43.8031 23.2594L38.1629 10.2216C37.974 9.78703 37.7189 9.42805 37.3976 9.14462C37.0953 8.86119 36.6702 8.71004 36.1222 8.69114V8.40771H44.0582V8.69114C43.3968 8.76673 42.9623 9.05959 42.7544 9.56976C42.5655 10.0799 42.6316 10.7223 42.9528 11.4971L45.8721 18.3277L48.7631 11.6671C48.952 11.2325 49.0465 10.8074 49.0465 10.3917C49.0465 9.91935 48.9048 9.53194 48.6214 9.22965C48.338 8.92735 47.9412 8.74783 47.431 8.69114V8.40771H51.9092V8.69114C51.4179 8.80451 50.9455 9.08793 50.492 9.54142C50.0385 9.99491 49.6323 10.6184 49.2733 11.412L44.0582 23.2594H43.8031Z" fill="#011624"/>
<path id="Vector_4" d="M54.6111 23.203C53.4585 23.203 52.5327 22.8912 51.8335 22.2677C51.1344 21.6442 50.7848 20.8222 50.7848 19.8019C50.7848 19.3673 50.8604 18.9611 51.0115 18.5831C51.1627 18.1863 51.4462 17.799 51.8618 17.4211C52.2964 17.0431 52.8916 16.6558 53.6474 16.259C54.4033 15.8434 55.4047 15.4087 56.6518 14.9552L59.2877 13.9916V11.8659C59.2877 10.7888 59.1177 9.93856 58.7775 9.31502C58.4374 8.67259 57.965 8.35137 57.3603 8.35137C56.6424 8.37027 56.0282 8.84265 55.518 9.7685C55.0268 10.6943 54.6961 11.9792 54.526 13.6231L51.465 11.8659C51.7863 11.0911 52.2776 10.4109 52.9388 9.82519C53.6002 9.23946 54.356 8.78596 55.2063 8.46474C56.0755 8.14353 56.9825 7.98291 57.9273 7.98291C59.5333 7.98291 60.8371 8.4364 61.8386 9.34336C62.8589 10.2315 63.369 11.4502 63.369 12.9996V19.8302C63.369 20.9261 63.7375 21.4741 64.4744 21.4741C64.909 21.4741 65.3341 21.2379 65.7499 20.7655L65.9766 20.9639C65.4853 21.6253 64.8901 22.1638 64.191 22.5795C63.4919 22.9951 62.8116 23.203 62.1503 23.203C61.4323 23.203 60.8088 22.9574 60.2796 22.4661C59.7696 21.9748 59.4483 21.3229 59.3161 20.5104C58.3901 21.4552 57.5777 22.1449 56.8785 22.5795C56.1983 22.9951 55.4425 23.203 54.6111 23.203ZM56.7368 21.4458C57.1525 21.4458 57.5493 21.3419 57.9273 21.134C58.324 20.9261 58.7681 20.586 59.2593 20.1136L59.2877 14.36L58.1539 14.7852C57.1903 15.1442 56.4534 15.5126 55.9432 15.8906C55.433 16.2495 55.074 16.6558 54.8662 17.1093C54.6772 17.5628 54.5827 18.0824 54.5827 18.6682C54.5827 19.4806 54.7811 20.1515 55.1779 20.6805C55.5937 21.1907 56.1132 21.4458 56.7368 21.4458Z" fill="#011624"/>
<path id="Vector_5" d="M72.1776 23.2043C71.6863 23.2043 71.2801 23.1854 70.9588 23.1476C70.6565 23.1098 70.3542 23.0626 70.0519 23.0059C69.7495 22.9492 69.3811 22.902 68.9465 22.8642C68.5119 22.8264 67.9167 22.8075 67.1609 22.8075L66.1689 15.4384H66.5091C66.7925 17.7625 67.4349 19.5575 68.4363 20.8235C69.4566 22.0706 70.7604 22.6941 72.3476 22.6941C73.5191 22.6941 74.4734 22.3635 75.2103 21.7021C75.9472 21.0408 76.3157 20.1811 76.3157 19.1229C76.3157 18.6694 76.2307 18.2348 76.0605 17.8192C75.9094 17.4035 75.6449 16.9594 75.267 16.487C74.8891 16.0147 74.3883 15.5045 73.7647 14.9565C73.1412 14.3897 72.3666 13.7566 71.4407 13.0576L70.2786 12.1789C68.8615 11.1019 67.8789 10.1382 67.3309 9.28796C66.783 8.43768 66.5091 7.51182 66.5091 6.51036C66.5091 4.84759 67.1136 3.54381 68.3229 2.59905C69.5511 1.63539 71.1667 1.15356 73.1695 1.15356C73.6608 1.15356 74.0576 1.17247 74.36 1.21025C74.6812 1.24804 74.9836 1.29528 75.267 1.35196C75.5693 1.40865 75.9189 1.45589 76.3157 1.49368C76.7124 1.53147 77.2226 1.55036 77.8461 1.55036L78.1295 7.27562H77.8461C77.5816 5.51836 77.0148 4.12956 76.1456 3.10922C75.2764 2.08888 74.2277 1.57871 72.9995 1.57871C72.1303 1.57871 71.4312 1.83379 70.9022 2.34396C70.3919 2.85414 70.1369 3.53436 70.1369 4.38465C70.1369 5.12156 70.3731 5.83014 70.8454 6.51036C71.3367 7.1717 72.1775 7.94641 73.3679 8.83448L74.5867 9.74144C75.8338 10.6484 76.8164 11.4892 77.5344 12.264C78.2713 13.0197 78.8004 13.7566 79.1216 14.4747C79.4428 15.1927 79.6034 15.958 79.6034 16.7705C79.6034 18.0176 79.2917 19.1229 78.6682 20.0866C78.0445 21.0502 77.1754 21.806 76.0605 22.354C74.9646 22.883 73.6703 23.1665 72.1776 23.2043Z" fill="#011624"/>
<path id="Vector_6" d="M79.3723 28.756V28.4726H79.4006C80.0808 28.4726 80.6288 28.2647 81.0445 27.8491C81.4602 27.4334 81.668 26.8854 81.668 26.2052V10.9567C81.6491 10.1253 81.4697 9.53959 81.1296 9.19948C80.7895 8.85936 80.2036 8.68931 79.3723 8.68931V8.40589H82.1783C83.293 8.40589 84.0583 8.30197 84.474 8.09411C84.8897 7.88627 85.192 7.63119 85.3809 7.32886H85.6643L85.6928 10.9567C86.1273 10.1064 86.7887 9.39788 87.6768 8.83103C88.5648 8.26417 89.5004 7.98074 90.4826 7.98074C91.5411 7.98074 92.4764 8.30197 93.2886 8.94439C94.1008 9.5868 94.7341 10.4654 95.1875 11.5803C95.6596 12.6762 95.8961 13.9422 95.8961 15.3782C95.8961 16.9654 95.6127 18.3447 95.0458 19.5163C94.479 20.6878 93.6756 21.5948 92.6367 22.2372C91.6163 22.8796 90.3976 23.2008 88.9805 23.2008C88.2058 23.2008 87.5728 23.0781 87.0816 22.8324C86.5903 22.6056 86.1462 22.2183 85.7494 21.6703V26.2052C85.7494 26.8854 85.9572 27.4334 86.373 27.8491C86.7887 28.2647 87.3367 28.4726 88.0169 28.4726H88.0452V28.756H79.3723ZM88.3853 22.719C89.4056 22.719 90.1806 22.086 90.7094 20.82C91.2195 19.5351 91.4746 17.6929 91.4746 15.2932C91.4746 11.174 90.6429 9.11445 88.9805 9.11445C88.338 9.11445 87.7051 9.36953 87.0816 9.87971C86.458 10.3899 86.0139 11.0134 85.7494 11.7503V18.3542C85.7494 19.7147 85.9856 20.7822 86.458 21.557C86.9304 22.3317 87.5728 22.719 88.3853 22.719Z" fill="#011624"/>
<path id="Vector_7" d="M96.2673 22.8049V22.5214C96.929 22.5214 97.4205 22.3892 97.7412 22.1246C98.0813 21.8412 98.2992 21.4822 98.393 21.0476C98.5064 20.613 98.5631 20.1406 98.5631 19.6305V4.09859C98.5631 3.41836 98.3461 2.8704 97.9112 2.4547C97.4958 2.03901 96.9476 1.83116 96.2673 1.83116V1.54773H99.1583C100.122 1.54773 100.859 1.44381 101.369 1.23596C101.842 1.02812 102.172 0.773027 102.361 0.470703H102.644V11.241C103.155 10.2395 103.901 9.45538 104.884 8.88852C105.867 8.30278 106.915 8.0099 108.03 8.0099C108.918 8.0099 109.674 8.21775 110.297 8.63344C110.921 9.03023 111.394 9.56875 111.714 10.249C112.054 10.9292 112.224 11.6945 112.224 12.5447V20.254C112.224 20.9531 112.432 21.5106 112.848 21.9262C113.283 22.323 113.84 22.5214 114.52 22.5214V22.8049H105.876V22.5214C106.556 22.5214 107.104 22.323 107.519 21.9262C107.954 21.5106 108.171 20.9531 108.171 20.254V12.2613C108.171 11.8457 108.115 11.4016 108.001 10.9292C107.888 10.4379 107.681 10.0222 107.378 9.68212C107.094 9.32314 106.689 9.14361 106.159 9.14361C105.668 9.14361 105.195 9.2948 104.742 9.59709C104.308 9.88052 103.911 10.2395 103.551 10.6741C103.193 11.1087 102.891 11.5433 102.644 11.9779V19.6305C102.644 20.1406 102.692 20.613 102.786 21.0476C102.9 21.4822 103.117 21.8412 103.438 22.1246C103.778 22.3892 104.28 22.5214 104.94 22.5214V22.8049H96.2673Z" fill="#011624"/>
<path id="Vector_8" d="M121.357 23.1468C120.053 23.1468 118.891 22.8256 117.871 22.1831C116.869 21.5407 116.085 20.6526 115.518 19.5189C114.952 18.3663 114.668 17.0531 114.668 15.5793C114.668 14.0676 114.98 12.745 115.604 11.6113C116.227 10.4775 117.077 9.59891 118.154 8.97537C119.25 8.33294 120.488 8.01172 121.867 8.01172C123.02 8.01172 124.04 8.23846 124.928 8.69195C125.835 9.14542 126.554 9.78783 127.082 10.6193C127.631 11.4317 127.942 12.3765 128.018 13.4535L128.046 13.8787H118.523V14.0204C118.523 16.0233 118.967 17.6294 119.855 18.8387C120.743 20.0291 121.934 20.6243 123.426 20.6243C124.333 20.6243 125.193 20.407 126.005 19.9724C126.837 19.5189 127.508 18.9142 128.018 18.1585L128.273 18.2435C127.951 19.2071 127.451 20.0574 126.771 20.7943C126.09 21.5313 125.287 22.1076 124.361 22.5233C123.436 22.9389 122.434 23.1468 121.357 23.1468ZM118.551 13.4535H124.305C124.305 11.9608 124.059 10.7515 123.568 9.82565C123.096 8.89982 122.424 8.43686 121.556 8.43686C120.724 8.43686 120.035 8.89034 119.487 9.79731C118.938 10.7043 118.626 11.923 118.551 13.4535Z" fill="#011624"/>
<path id="Vector_9" d="M128.407 22.804V22.5206H128.435C129.115 22.5206 129.664 22.3127 130.079 21.8971C130.494 21.4814 130.703 20.9334 130.703 20.2532V10.9567C130.703 10.2387 130.551 9.68131 130.249 9.28451C129.966 8.88771 129.352 8.68931 128.407 8.68931V8.40589H131.213C132.214 8.40589 132.97 8.31142 133.48 8.12246C133.99 7.91462 134.349 7.65008 134.557 7.32886H134.699L134.727 11.9771C134.973 11.4102 135.284 10.815 135.663 10.1915C136.059 9.56793 136.551 9.04829 137.136 8.63263C137.741 8.19804 138.459 7.98074 139.29 7.98074C139.574 7.98074 139.876 8.00909 140.197 8.06577C140.519 8.12246 140.859 8.22639 141.218 8.37754L140.112 11.6936C139.432 11.3157 138.837 11.0512 138.327 10.9C137.835 10.7489 137.401 10.6733 137.023 10.6733C136.381 10.6733 135.899 10.8717 135.577 11.2685C135.275 11.6653 135.011 12.1377 134.784 12.6856V20.2532C134.784 20.9334 134.992 21.4814 135.407 21.8971C135.823 22.3127 136.371 22.5206 137.051 22.5206H137.08V22.804H128.407Z" fill="#011624"/>
<path id="Vector_10" d="M147.707 23.1468C146.403 23.1468 145.241 22.8256 144.221 22.1831C143.219 21.5407 142.435 20.6526 141.869 19.5189C141.302 18.3663 141.018 17.0531 141.018 15.5793C141.018 14.0676 141.33 12.745 141.954 11.6113C142.577 10.4775 143.427 9.59891 144.504 8.97537C145.6 8.33294 146.838 8.01172 148.217 8.01172C149.37 8.01172 150.39 8.23846 151.278 8.69195C152.185 9.14542 152.904 9.78783 153.432 10.6193C153.981 11.4317 154.293 12.3765 154.368 13.4535L154.396 13.8787H144.873V14.0204C144.873 16.0233 145.317 17.6294 146.205 18.8387C147.093 20.0291 148.284 20.6243 149.776 20.6243C150.683 20.6243 151.543 20.407 152.355 19.9724C153.187 19.5189 153.858 18.9142 154.368 18.1585L154.623 18.2435C154.301 19.2071 153.801 20.0574 153.121 20.7943C152.44 21.5313 151.637 22.1076 150.712 22.5233C149.786 22.9389 148.784 23.1468 147.707 23.1468ZM144.901 13.4535H150.655C150.655 11.9608 150.41 10.7515 149.918 9.82565C149.446 8.89982 148.775 8.43686 147.906 8.43686C147.074 8.43686 146.385 8.89034 145.837 9.79731C145.288 10.7043 144.977 11.923 144.901 13.4535Z" fill="#011624"/>
</g>
<defs>
<clipPath id="clip0_0_160">
<rect width="155" height="29.2286" fill="white"/>
</clipPath>
</defs>
</svg>
