<svg width="150" height="30" viewBox="0 0 150 30" fill="none" xmlns="http://www.w3.org/2000/svg">
<g id="Component 1" clip-path="url(#clip0_0_202)">
<path id="Vector" d="M19.3775 6.73491C19.3775 9.21521 17.3668 11.2259 14.8865 11.2259C12.4062 11.2259 10.3955 9.21521 10.3955 6.73491C10.3955 4.2546 12.4062 2.2439 14.8865 2.2439C17.3668 2.2439 19.3775 4.2546 19.3775 6.73491Z" fill="#011624"/>
<path id="Vector_2" d="M11.2938 14.8213C11.2938 17.3016 9.28311 19.3124 6.80279 19.3124C4.32247 19.3124 2.31177 17.3016 2.31177 14.8213C2.31177 12.341 4.32247 10.3303 6.80279 10.3303C9.28311 10.3303 11.2938 12.341 11.2938 14.8213Z" fill="#011624"/>
<path id="Vector_3" d="M27.462 14.8213C27.462 17.3016 25.4513 19.3124 22.971 19.3124C20.4907 19.3124 18.48 17.3016 18.48 14.8213C18.48 12.341 20.4907 10.3303 22.971 10.3303C25.4513 10.3303 27.462 12.341 27.462 14.8213Z" fill="#011624"/>
<path id="Vector_4" d="M19.3775 22.9022C19.3775 25.3824 17.3668 27.3932 14.8865 27.3932C12.4062 27.3932 10.3955 25.3824 10.3955 22.9022C10.3955 20.4219 12.4062 18.4111 14.8865 18.4111C17.3668 18.4111 19.3775 20.4219 19.3775 22.9022Z" fill="#011624"/>
<path id="Vector_5" d="M45.555 5.29297H49.0472L56.3621 25.4127H53.2005L51.8065 21.59H42.7957L41.416 25.4127H38.24L45.555 5.29297ZM43.9023 18.6008H50.6999L47.2939 9.25944L43.9023 18.6008Z" fill="#011624"/>
<path id="Vector_6" d="M61.863 25.6854C61.1061 25.6376 60.3684 25.4842 59.6499 25.2255C58.9313 24.9669 58.2989 24.6172 57.7528 24.1764C57.2163 23.7262 56.8139 23.1992 56.5457 22.5956L59.0894 21.5034C59.2139 21.7621 59.4294 22.016 59.7361 22.2651C60.0522 22.5141 60.421 22.7202 60.8427 22.883C61.2642 23.0364 61.7049 23.113 62.1648 23.113C62.6151 23.113 63.0319 23.0507 63.4151 22.9261C63.8079 22.792 64.1288 22.5908 64.378 22.3226C64.6271 22.0543 64.7516 21.7333 64.7516 21.3597C64.7516 20.9382 64.6079 20.6124 64.3205 20.3824C64.0426 20.1429 63.6929 19.9609 63.2714 19.8363C62.8498 19.7117 62.4283 19.592 62.0067 19.477C61.0677 19.2662 60.2055 18.9788 59.4199 18.6148C58.6439 18.2411 58.0259 17.7669 57.566 17.192C57.1061 16.6076 56.8762 15.8938 56.8762 15.0507C56.8762 14.1309 57.1253 13.3358 57.6235 12.6651C58.1216 11.9849 58.7732 11.4626 59.578 11.0986C60.3923 10.7346 61.2594 10.5525 62.1792 10.5525C63.3289 10.5525 64.3828 10.7968 65.3409 11.2854C66.2989 11.774 67.0318 12.4447 67.5397 13.2974L65.1684 14.7058C65.0247 14.4184 64.8091 14.1597 64.5217 13.9297C64.2343 13.6998 63.9085 13.5177 63.5445 13.3836C63.1803 13.2399 62.8019 13.1584 62.4091 13.1393C61.9205 13.1202 61.4654 13.1777 61.0439 13.3118C60.6319 13.4364 60.3013 13.6375 60.0522 13.9154C59.8031 14.1932 59.6786 14.5477 59.6786 14.9788C59.6786 15.4004 59.8271 15.7165 60.1241 15.9273C60.421 16.1285 60.7947 16.2914 61.2451 16.416C61.7049 16.5405 62.1743 16.6794 62.6534 16.8327C63.5061 17.101 64.3061 17.4316 65.0534 17.8243C65.8007 18.2076 66.4043 18.6819 66.8642 19.2471C67.3241 19.8123 67.5444 20.5022 67.5253 21.3166C67.5253 22.2172 67.2522 23.0076 66.7061 23.6878C66.1695 24.368 65.4702 24.8854 64.6079 25.2399C63.7457 25.5944 62.8307 25.7429 61.863 25.6854Z" fill="#011624"/>
<path id="Vector_7" d="M78.5995 21.328L81.2725 22.7795C80.621 23.6896 79.7923 24.4178 78.7863 24.9639C77.7898 25.51 76.7072 25.783 75.5384 25.783C74.2163 25.783 73.0091 25.4429 71.9169 24.7627C70.8342 24.0825 69.9671 23.1722 69.3157 22.0321C68.6737 20.8824 68.3528 19.613 68.3528 18.2238C68.3528 17.1699 68.5396 16.1878 68.9133 15.2777C69.2869 14.3579 69.7994 13.5531 70.451 12.8633C71.1121 12.1639 71.8785 11.6177 72.7504 11.225C73.6222 10.8322 74.5516 10.6357 75.5384 10.6357C76.7072 10.6357 77.7898 10.9088 78.7863 11.4549C79.7923 12.001 80.621 12.7339 81.2725 13.6537L78.5995 15.1052C78.1971 14.6262 77.7276 14.2621 77.1911 14.013C76.6545 13.7543 76.1037 13.625 75.5384 13.625C74.7528 13.625 74.0389 13.8405 73.3971 14.2717C72.7648 14.6932 72.2618 15.2537 71.8881 15.9531C71.524 16.6429 71.342 17.3998 71.342 18.2238C71.342 19.0382 71.5288 19.795 71.9025 20.4944C72.2761 21.1842 72.7791 21.74 73.4115 22.1615C74.0533 22.583 74.7624 22.7938 75.5384 22.7938C76.1324 22.7938 76.6976 22.6597 77.2342 22.3914C77.7707 22.1231 78.2258 21.7687 78.5995 21.328Z" fill="#011624"/>
<path id="Vector_8" d="M89.2501 25.783C87.9279 25.783 86.7207 25.4429 85.6285 24.7627C84.5459 24.0825 83.6789 23.1722 83.0273 22.0321C82.3855 20.8824 82.0645 19.613 82.0645 18.2238C82.0645 17.1699 82.2513 16.1878 82.6249 15.2777C82.9986 14.3579 83.5112 13.5531 84.1627 12.8633C84.8237 12.1639 85.5903 11.6177 86.4621 11.225C87.3339 10.8322 88.2633 10.6357 89.2501 10.6357C90.352 10.6357 91.3625 10.8657 92.2822 11.3256C93.202 11.7758 93.9879 12.4034 94.6391 13.2082C95.2912 14.0034 95.77 14.9231 96.0763 15.9675C96.3834 17.0022 96.4742 18.104 96.3493 19.2729H85.2692C85.3938 19.9339 85.6334 20.5328 85.9878 21.0693C86.3519 21.5963 86.8118 22.013 87.3675 22.3196C87.9328 22.6261 88.5603 22.7842 89.2501 22.7938C89.9783 22.7938 90.6394 22.6118 91.2331 22.2477C91.8367 21.8837 92.3307 21.3807 92.7134 20.7387L95.7457 21.4429C95.1709 22.7172 94.3041 23.7615 93.1445 24.5759C91.9858 25.3807 90.687 25.783 89.2501 25.783ZM85.1686 16.9878H93.3313C93.2361 16.298 92.9918 15.6753 92.5984 15.1196C92.2158 14.5543 91.7316 14.1088 91.1469 13.783C90.5721 13.4477 89.9397 13.2801 89.2501 13.2801C88.5699 13.2801 87.9375 13.4429 87.3531 13.7687C86.7782 14.0945 86.2992 14.54 85.916 15.1052C85.5423 15.6609 85.2932 16.2884 85.1686 16.9878Z" fill="#011624"/>
<path id="Vector_9" d="M111.089 16.3986V25.4094H108.1V17.1316C108.1 16.4896 107.942 15.9052 107.626 15.3783C107.319 14.8513 106.903 14.4345 106.375 14.128C105.858 13.8118 105.273 13.6537 104.622 13.6537C103.99 13.6537 103.41 13.8118 102.883 14.128C102.356 14.4345 101.935 14.8513 101.619 15.3783C101.302 15.9052 101.144 16.4896 101.144 17.1316V25.4094H98.155V11.0381H101.144V12.5615C101.643 11.9675 102.255 11.498 102.984 11.1531C103.712 10.8082 104.497 10.6357 105.341 10.6357C106.404 10.6357 107.371 10.8944 108.244 11.4118C109.116 11.9292 109.806 12.6237 110.313 13.4956C110.83 14.3675 111.089 15.3351 111.089 16.3986Z" fill="#011624"/>
<path id="Vector_10" d="M124.297 3.85449H127.286V25.4114H124.297V23.2988C123.828 24.0461 123.215 24.6497 122.458 25.1096C121.701 25.5599 120.815 25.785 119.799 25.785C118.755 25.785 117.778 25.5886 116.867 25.1958C115.957 24.803 115.153 24.2617 114.453 23.5719C113.763 22.8724 113.222 22.0676 112.829 21.1575C112.436 20.2473 112.24 19.2701 112.24 18.2258C112.24 17.1814 112.436 16.2042 112.829 15.294C113.222 14.3743 113.763 13.5695 114.453 12.8797C115.153 12.1802 115.957 11.6341 116.867 11.2413C117.778 10.8485 118.755 10.6521 119.799 10.6521C120.815 10.6521 121.701 10.882 122.458 11.3419C123.215 11.7922 123.828 12.3863 124.297 13.124V3.85449ZM119.828 22.8964C120.671 22.8964 121.409 22.6905 122.041 22.2785C122.673 21.8569 123.162 21.2916 123.507 20.5826C123.862 19.8737 124.039 19.088 124.039 18.2258C124.039 17.3539 123.862 16.5635 123.507 15.8545C123.153 15.1455 122.659 14.5851 122.027 14.1731C121.404 13.7515 120.671 13.5407 119.828 13.5407C118.994 13.5407 118.233 13.7515 117.543 14.1731C116.863 14.5946 116.317 15.1599 115.904 15.8689C115.502 16.5778 115.301 17.3635 115.301 18.2258C115.301 19.0976 115.507 19.8881 115.919 20.597C116.341 21.2964 116.892 21.8569 117.571 22.2785C118.261 22.6905 119.014 22.8964 119.828 22.8964Z" fill="#011624"/>
<path id="Vector_11" d="M130.154 11.0429H133.143V25.4142H130.154V11.0429ZM131.677 8.95911C131.217 8.95911 130.835 8.81061 130.528 8.5136C130.221 8.2166 130.068 7.84294 130.068 7.39264C130.068 6.95193 130.221 6.58306 130.528 6.28605C130.835 5.97947 131.213 5.82617 131.663 5.82617C132.104 5.82617 132.477 5.97947 132.784 6.28605C133.091 6.58306 133.244 6.95193 133.244 7.39264C133.244 7.84294 133.091 8.2166 132.784 8.5136C132.487 8.81061 132.118 8.95911 131.677 8.95911Z" fill="#011624"/>
<path id="Vector_12" d="M146.935 11.0381H149.924V25.4094H146.921L146.806 23.3256C146.385 24.0633 145.814 24.6573 145.096 25.1076C144.377 25.5579 143.529 25.783 142.552 25.783C141.498 25.783 140.507 25.5866 139.577 25.1938C138.648 24.7914 137.829 24.2357 137.12 23.5268C136.421 22.8178 135.875 22.0034 135.481 21.0836C135.089 20.1543 134.892 19.1579 134.892 18.0944C134.892 17.0693 135.084 16.1064 135.467 15.2058C135.85 14.2957 136.382 13.5004 137.062 12.8202C137.743 12.14 138.528 11.6082 139.419 11.225C140.32 10.8322 141.283 10.6357 142.308 10.6357C143.352 10.6357 144.272 10.8753 145.067 11.3543C145.872 11.8238 146.538 12.4274 147.065 13.1651L146.935 11.0381ZM142.48 22.8944C143.324 22.8944 144.061 22.6885 144.693 22.2765C145.326 21.8549 145.814 21.2896 146.159 20.5807C146.514 19.8717 146.691 19.086 146.691 18.2238C146.691 17.3519 146.514 16.5615 146.159 15.8525C145.805 15.1436 145.311 14.5831 144.679 14.1711C144.056 13.7495 143.324 13.5387 142.48 13.5387C141.647 13.5387 140.885 13.7495 140.195 14.1711C139.505 14.5926 138.959 15.1579 138.557 15.8669C138.154 16.5758 137.953 17.3615 137.953 18.2238C137.953 19.0957 138.16 19.8861 138.571 20.595C138.993 21.2945 139.544 21.8549 140.224 22.2765C140.914 22.6885 141.666 22.8944 142.48 22.8944Z" fill="#011624"/>
</g>
<defs>
<clipPath id="clip0_0_202">
<rect width="150" height="29.6407" fill="white"/>
</clipPath>
</defs>
</svg>
